<?xml version="1.0" encoding="UTF-8"?>
<svg version="1.1" xmlns="http://www.w3.org/2000/svg" width="1024" height="1024">
<path d="M0 0 C337.92 0 675.84 0 1024 0 C1024 337.92 1024 675.84 1024 1024 C686.08 1024 348.16 1024 0 1024 C0 686.08 0 348.16 0 0 Z " fill="#FBFBFB" transform="translate(0,0)"/>
<path d="M0 0 C2.24727275 -0.00115314 4.49454531 -0.00274197 6.74181747 -0.00472724 C12.89804252 -0.00889373 19.05425202 -0.00684201 25.21047711 -0.00374103 C31.17346807 -0.00170913 37.13645646 -0.00437733 43.09944683 -0.00688839 C56.04127067 -0.01214576 68.98308957 -0.01170123 81.92491388 -0.00880948 C93.2456381 -0.00629238 104.56636051 -0.00563796 115.88708496 -0.00683212 C117.01415635 -0.0069467 117.01415635 -0.0069467 118.16399686 -0.00706359 C121.21412849 -0.00737493 124.26426012 -0.00769334 127.31439175 -0.00802336 C155.90875644 -0.01108039 184.50311798 -0.00831155 213.09748217 -0.00292646 C238.5090816 0.00182281 263.92067601 0.00139104 289.33227539 -0.00338745 C317.88694365 -0.00873904 346.44160912 -0.01086745 374.99627781 -0.00777519 C378.03832054 -0.00745447 381.08036327 -0.00714163 384.12240601 -0.00683212 C384.87142902 -0.00675305 385.62045203 -0.00667397 386.39217272 -0.00659249 C397.71210232 -0.00545415 409.03202991 -0.00678684 420.35195923 -0.00931168 C433.2145856 -0.01216631 446.07720626 -0.0114658 458.93983191 -0.00603093 C465.50632754 -0.00334806 472.07281506 -0.00238572 478.63931084 -0.00568008 C484.64305399 -0.0086467 490.64677743 -0.00704408 496.65051877 -0.00170253 C498.82922069 -0.00057997 501.00792425 -0.00116601 503.18662512 -0.00357832 C506.13463371 -0.00659359 509.08257368 -0.00352596 512.03057861 0.0011425 C512.88779996 -0.00119866 513.74502131 -0.00353983 514.62821907 -0.00595194 C518.24478076 0.00559286 521.48922416 0.14943619 524.96948242 1.12698364 C524.96948242 1.78698364 524.96948242 2.44698364 524.96948242 3.12698364 C526.33073242 3.34354614 526.33073242 3.34354614 527.71948242 3.56448364 C530.18425198 3.99107837 532.5579535 4.47772585 534.96948242 5.12698364 C534.96948242 5.78698364 534.96948242 6.44698364 534.96948242 7.12698364 C535.69135742 7.37061646 536.41323242 7.61424927 537.15698242 7.86526489 C544.52357998 11.17000241 550.98457957 18.18553997 554.96948242 25.12698364 C555.59203045 27.52756655 555.81684758 29.63394788 555.96948242 32.12698364 C556.62948242 32.12698364 557.28948242 32.12698364 557.96948242 32.12698364 C560.59469394 38.08855888 560.25089311 43.9995772 560.23017883 50.38470459 C560.23400438 51.63093137 560.23782993 52.87715815 560.2417714 54.16114938 C560.25029924 57.61338059 560.24986978 61.0653986 560.24559081 64.51762366 C560.24312334 68.24376529 560.2521382 71.96988193 560.2596283 75.6960144 C560.27237836 82.99446939 560.27416847 90.29288758 560.27182803 97.59135182 C560.27004446 103.52646502 560.27179537 109.46156706 560.27605247 115.39667892 C560.27664766 116.24166185 560.27724285 117.08664477 560.27785608 117.95723324 C560.27906785 119.67391727 560.28028199 121.39060129 560.28149845 123.10728531 C560.29237593 139.20854361 560.29021097 155.30978098 560.28411361 171.41104047 C560.27894863 186.12685944 560.29018844 200.84261213 560.30921183 215.55841799 C560.32860713 230.67823807 560.33684298 245.79802683 560.33308858 260.91785944 C560.33117854 269.40248251 560.33364449 277.88704923 560.34780312 286.37166214 C560.35973973 293.59780547 560.36109659 300.82385778 560.34901295 308.05000241 C560.34313919 311.73352457 560.34198276 315.41688047 560.35401535 319.10039139 C560.36693715 323.10284519 560.3563735 327.10490623 560.34370422 331.10736084 C560.35107851 332.2589442 560.35845279 333.41052757 560.36605054 334.59700739 C560.28855439 346.27659504 558.21587775 355.83673322 550.96948242 365.12698364 C550.22698242 366.15823364 549.48448242 367.18948364 548.71948242 368.25198364 C541.35798981 375.94808955 531.71608227 382.23143366 520.96948242 383.12698364 C520.96948242 383.78698364 520.96948242 384.44698364 520.96948242 385.12698364 C519.90580224 385.12107586 518.84212206 385.11516808 517.74620914 385.10908127 C491.85619968 384.96803608 465.966699 384.89606637 440.0762949 384.89638901 C427.55573557 384.89494835 415.03596838 384.87112142 402.515625 384.79446411 C391.60190584 384.72770049 380.68904086 384.70307171 369.77513355 384.72888875 C363.99668486 384.7410902 358.21999922 384.73229575 352.44180489 384.67302704 C346.99991206 384.61787398 341.56091724 384.61917357 336.1189518 384.66329002 C334.12472933 384.66959482 332.13031868 384.65548297 330.13641739 384.61914253 C320.27759638 384.06876958 320.27759638 384.06876958 311.29726481 387.31482792 C308.10475044 390.4914613 306.07451261 394.15807809 303.96948242 398.12698364 C303.0086982 399.38046103 302.01300974 400.6090162 300.96557617 401.79104614 C299.17483702 403.86338244 297.3885426 405.93868239 295.61010742 408.02151489 C294.94011719 408.80582886 294.94011719 408.80582886 294.2565918 409.60598755 C290.06015927 414.56497363 286.03501839 419.66587281 282.15698242 424.87698364 C279.21445079 428.82209531 276.22944364 432.73317198 273.21948242 436.62698364 C272.49281372 437.58169556 272.49281372 437.58169556 271.75146484 438.55569458 C270.5377887 440.11713931 269.25860364 441.6272217 267.96948242 443.12698364 C267.30948242 443.12698364 266.64948242 443.12698364 265.96948242 443.12698364 C265.30948242 444.77698364 264.64948242 446.42698364 263.96948242 448.12698364 C263.30948242 448.12698364 262.64948242 448.12698364 261.96948242 448.12698364 C261.7297168 448.84885864 261.48995117 449.57073364 261.24291992 450.31448364 C259.78606794 453.53207085 258.00997426 455.5590189 255.59448242 458.12698364 C252.57010372 461.3637769 249.69940391 464.63667307 246.96948242 468.12698364 C243.25384709 466.88843853 242.37489651 465.43681186 239.96948242 462.37698364 C239.1728418 461.37924927 238.37620117 460.38151489 237.55541992 459.35354614 C237.13357422 458.82406372 236.71172852 458.2945813 236.27709961 457.74905396 C234.09628038 455.04379574 231.84547252 452.3988886 229.59448242 449.75198364 C229.13436768 449.20896606 228.67425293 448.66594849 228.20019531 448.10647583 C225.86683058 445.3539074 223.52590617 442.60807035 221.17651367 439.86917114 C216.14367953 433.98631575 211.27971604 428.0201574 206.59375 421.85696411 C203.29268862 417.52044215 199.87094749 413.29921403 196.40307617 409.09573364 C192.0110688 403.73790763 187.70219844 398.31303831 183.38232422 392.89700317 C182.91608643 392.31289673 182.44984863 391.72879028 181.96948242 391.12698364 C181.45109645 390.27810609 180.93271048 389.42922853 180.39861584 388.55462742 C177.59187441 385.7496072 175.97321226 385.53313587 172.0772813 385.47405237 C171.28964544 385.48745411 170.50200959 385.50085585 169.69050598 385.5146637 C168.84814304 385.50913028 168.00578009 385.50359687 167.13789099 385.49789578 C164.31018283 385.48529773 161.48387869 385.50832312 158.65625 385.53103638 C156.63087647 385.52913294 154.60550397 385.52497858 152.58013916 385.51873779 C148.21531429 385.50993597 143.85088651 385.51672459 139.48609352 385.53539848 C132.58158237 385.56445209 125.67741453 385.55670726 118.77287292 385.54350281 C105.35608192 385.5228179 91.93945619 385.53844486 78.52267456 385.55897522 C61.46289279 385.58409691 44.40320404 385.59695742 27.34341925 385.5690189 C20.48318067 385.55907271 13.623353 385.56917805 6.76315939 385.59492671 C2.48852402 385.60711914 -1.78598379 385.60288444 -6.06062317 385.59434891 C-8.03868978 385.59381489 -10.01677226 385.6001234 -11.99479103 385.61388969 C-14.70243533 385.63181409 -17.40897309 385.62497474 -20.11662292 385.61231995 C-20.89310517 385.62349096 -21.66958742 385.63466198 -22.46959943 385.64617151 C-28.38631416 385.57897949 -32.80596426 383.81307714 -38.03051758 381.12698364 C-39.0334082 380.63456177 -40.03629883 380.14213989 -41.06958008 379.63479614 C-49.03623181 375.37468328 -55.50463955 371.09252896 -60.03051758 363.12698364 C-60.03051758 362.46698364 -60.03051758 361.80698364 -60.03051758 361.12698364 C-60.69051758 361.12698364 -61.35051758 361.12698364 -62.03051758 361.12698364 C-63.06810085 358.80477347 -64.06454361 356.47919144 -65.03051758 354.12698364 C-65.29696471 353.49276987 -65.56341184 352.8585561 -65.83793312 352.20512372 C-68.33035717 345.62352088 -68.4544851 339.48958344 -68.41819763 332.50849915 C-68.42358317 331.25970909 -68.42896871 330.01091903 -68.43451744 328.72428685 C-68.44891129 325.27883095 -68.44474648 321.83361549 -68.43735063 318.38814676 C-68.43260608 314.6640917 -68.44514023 310.9400877 -68.45536804 307.21604919 C-68.47253695 299.92801727 -68.47339993 292.64007164 -68.46815514 285.35202476 C-68.46410821 279.42555983 -68.46556321 273.49912035 -68.4709034 267.57265663 C-68.47165182 266.72808018 -68.47240024 265.88350372 -68.47317134 265.01333404 C-68.47470288 263.29737461 -68.47624122 261.5814152 -68.47778631 259.86545578 C-68.49150475 243.78420371 -68.48607855 227.70300033 -68.4746011 211.62174938 C-68.46467211 196.92549871 -68.47760476 182.22937401 -68.50153529 167.53314277 C-68.52594743 152.42678103 -68.5355288 137.32047791 -68.52888256 122.21409684 C-68.52539469 113.73956376 -68.52759367 105.26512749 -68.54513359 96.79060936 C-68.55988216 89.57549196 -68.56045658 82.36053954 -68.54306268 75.14542528 C-68.53457155 71.4679139 -68.53235637 67.79069689 -68.54771423 64.11320114 C-68.56419415 60.11737042 -68.54936563 56.12224482 -68.53172302 52.12641907 C-68.54132803 50.97688206 -68.55093304 49.82734506 -68.5608291 48.6429736 C-68.470078 38.61699008 -66.08025952 29.45272705 -60.53051758 21.00198364 C-59.96333008 20.11253052 -59.39614258 19.22307739 -58.81176758 18.30667114 C-56.96784631 16.0502938 -55.60131352 15.3579156 -53.03051758 14.12698364 C-52.70051758 13.13698364 -52.37051758 12.14698364 -52.03051758 11.12698364 C-36.75070367 -1.97850977 -18.97856682 -0.02120134 0 0 Z " fill="#F6C72D" transform="translate(266.030517578125,272.8730163574219)"/>
<path d="M0 0 C0.33 0 0.66 0 1 0 C1 21.12 1 42.24 1 64 C9.25 64 17.5 64 26 64 C26 77.86 26 91.72 26 106 C17.75 106 9.5 106 1 106 C1 119.86 1 133.72 1 148 C9.25 148 17.5 148 26 148 C26 153.28 26 158.56 26 164 C17.75 164 9.5 164 1 164 C1 177.86 1 191.72 1 206 C9.25 206 17.5 206 26 206 C26 219.86 26 233.72 26 248 C17.75 248 9.5 248 1 248 C1 261.86 1 275.72 1 290 C9.25 290 17.5 290 26 290 C26 303.86 26 317.72 26 332 C39.86 332 53.72 332 68 332 C68.83616184 337.01697105 69.05832986 341.44035142 68.87890625 346.4609375 C68.85529526 347.25150543 68.83168427 348.04207336 68.80735779 348.8565979 C68.73124603 351.36293893 68.64699864 353.86892912 68.5625 356.375 C68.50922664 358.08201451 68.45648667 359.78904576 68.40429688 361.49609375 C68.27570269 365.66428149 68.13981524 369.83217418 68 374 C59.79177453 374.17214344 51.5834266 374.33774262 43.375 374.5 C42.16815552 374.52400879 40.96131104 374.54801758 39.71789551 374.57275391 C24.16563289 374.87821973 8.62309978 375.11965994 -6.93212891 374.96289062 C-8.01155762 374.95451172 -9.09098633 374.94613281 -10.203125 374.9375 C-11.11739258 374.92589844 -12.03166016 374.91429687 -12.97363281 374.90234375 C-14.9963422 374.77225915 -14.9963422 374.77225915 -16 376 C-16.06388744 378.69223562 -16.06622126 381.35946794 -16.02734375 384.05078125 C-16.01469273 385.71549268 -16.00233212 387.38020633 -15.99023438 389.04492188 C-15.96543912 391.67837393 -15.93751002 394.31171157 -15.90405273 396.94506836 C-15.8738174 399.48031338 -15.85606059 402.0154132 -15.83984375 404.55078125 C-15.81965431 405.72910271 -15.81965431 405.72910271 -15.79905701 406.93122864 C-15.77991478 411.10802761 -16.08247129 413.16494258 -18 417 C-31.53 417 -45.06 417 -59 417 C-59.33 417.66 -59.66 418.32 -60 419 C-60 418.01 -60 417.02 -60 416 C-80.295 416.495 -80.295 416.495 -101 417 C-101.66 430.53 -102.32 444.06 -103 458 C-116.86 458 -130.72 458 -145 458 C-145 471.86 -145 485.72 -145 500 C-151.909375 500.020625 -158.81875 500.04125 -165.9375 500.0625 C-169.21288696 500.07615601 -169.21288696 500.07615601 -172.55444336 500.09008789 C-174.2745762 500.09300698 -175.99470972 500.09555555 -177.71484375 500.09765625 C-178.61658325 500.10277222 -179.51832275 500.10788818 -180.4473877 500.11315918 C-182.63191745 500.11346882 -184.8163633 500.0624587 -187 500 C-188 499 -188 499 -188.11352539 495.12280273 C-188.11327423 493.39305834 -188.10771043 491.66330895 -188.09765625 489.93359375 C-188.09664917 489.1286145 -188.09564209 488.32363525 -188.09460449 487.4942627 C-188.08935614 484.47532739 -188.075395 481.45641233 -188.0625 478.4375 C-188.041875 471.693125 -188.02125 464.94875 -188 458 C-208.295 458.495 -208.295 458.495 -229 459 C-229.28935866 472.11890545 -229.28935866 472.11890545 -229.56811523 485.23803711 C-229.60622185 486.87614835 -229.64468958 488.51425125 -229.68359375 490.15234375 C-229.70006958 491.01089966 -229.71654541 491.86945557 -229.73352051 492.75402832 C-229.8859282 498.8859282 -229.8859282 498.8859282 -231 500 C-234.01808063 500.101137 -237.01280513 500.13968909 -240.03125 500.1328125 C-240.93750122 500.13376923 -241.84375244 500.13472595 -242.77746582 500.13571167 C-244.69751047 500.13639353 -246.61755741 500.13453882 -248.53759766 500.13037109 C-251.48735704 500.12502292 -254.43696414 500.13031588 -257.38671875 500.13671875 C-259.24739617 500.13605797 -261.1080735 500.13477681 -262.96875 500.1328125 C-264.30153992 500.13584885 -264.30153992 500.13584885 -265.66125488 500.13894653 C-271.88505012 500.11494988 -271.88505012 500.11494988 -273 499 C-273.08868299 496.04294679 -273.11520296 493.10934944 -273.09765625 490.15234375 C-273.0962413 489.2659169 -273.09482635 488.37949005 -273.09336853 487.46620178 C-273.08775215 484.62326746 -273.07519691 481.78041069 -273.0625 478.9375 C-273.05748711 477.01497509 -273.05292384 475.09244896 -273.04882812 473.16992188 C-273.03777741 468.44658451 -273.02050183 463.72330542 -273 459 C-269.56395235 457.28197618 -265.61561104 457.8803382 -261.8359375 457.90234375 C-260.92872955 457.9037587 -260.02152161 457.90517365 -259.08682251 457.90663147 C-256.18284845 457.91223904 -253.27895085 457.92479282 -250.375 457.9375 C-248.40885528 457.94251402 -246.44270935 457.9470771 -244.4765625 457.95117188 C-239.6510121 457.96221094 -234.82551903 457.97948065 -230 458 C-230.00523682 456.7632251 -230.01047363 455.5264502 -230.01586914 454.25219727 C-230.03391561 449.68075275 -230.04543071 445.10931141 -230.05493164 440.5378418 C-230.05997267 438.55606559 -230.06680538 436.57429311 -230.07543945 434.5925293 C-230.08751515 431.75047891 -230.09323045 428.90847753 -230.09765625 426.06640625 C-230.10281754 425.17474258 -230.10797882 424.28307892 -230.11329651 423.36439514 C-230.11349177 421.24259399 -230.0621003 419.1208922 -230 417 C-229 416 -229 416 -225.12280273 415.88647461 C-223.39305834 415.88672577 -221.66330895 415.89228957 -219.93359375 415.90234375 C-219.1286145 415.90335083 -218.32363525 415.90435791 -217.4942627 415.90539551 C-214.47532739 415.91064386 -211.45641233 415.924605 -208.4375 415.9375 C-201.693125 415.958125 -194.94875 415.97875 -188 416 C-188 402.47 -188 388.94 -188 375 C-173.81 375 -159.62 375 -145 375 C-145 388.53 -145 402.06 -145 416 C-131.14 416 -117.28 416 -103 416 C-102.71063843 402.55199028 -102.71063843 402.55199028 -102.43188477 389.10375977 C-102.39377838 387.42463311 -102.35531068 385.7455146 -102.31640625 384.06640625 C-102.29993042 383.18625854 -102.28345459 382.30611084 -102.26647949 381.39929199 C-102.1140718 375.1140718 -102.1140718 375.1140718 -101 374 C-97.97022196 373.91128727 -94.96332978 373.8848065 -91.93359375 373.90234375 C-91.02497086 373.9037587 -90.11634796 373.90517365 -89.18019104 373.90663147 C-86.26592779 373.91224807 -83.35174019 373.92480335 -80.4375 373.9375 C-78.46679798 373.94251286 -76.49609476 373.94707614 -74.52539062 373.95117188 C-69.68354086 373.96137383 -64.84185553 373.98094591 -60 374 C-60 364.1 -60 354.2 -60 344 C-73.86 344 -87.72 344 -102 344 C-101.96051213 352.37649761 -101.96051213 352.37649761 -101.90991211 360.75292969 C-101.90616577 362.32155762 -101.90616577 362.32155762 -101.90234375 363.921875 C-101.89710693 364.99018555 -101.89187012 366.05849609 -101.88647461 367.15917969 C-102 370 -102 370 -103 374 C-116.86 374 -130.72 374 -145 374 C-145 364.1 -145 354.2 -145 344 C-159.19 344 -173.38 344 -188 344 C-188 353.9 -188 363.8 -188 374 C-208.295 374.495 -208.295 374.495 -229 375 C-229.33 388.53 -229.66 402.06 -230 416 C-235.9631823 416.02290595 -241.92621311 416.04283396 -247.8894043 416.05493164 C-249.91968298 416.05997278 -251.94995802 416.06680557 -253.98022461 416.07543945 C-256.89177347 416.08751467 -259.8032745 416.09323034 -262.71484375 416.09765625 C-264.08514992 416.10539818 -264.08514992 416.10539818 -265.48313904 416.11329651 C-267.65575427 416.11349168 -269.82827296 416.06211805 -272 416 C-274.00503509 413.99496491 -273.25588663 409.99974556 -273.31640625 407.24609375 C-273.33718735 406.47064713 -273.35796844 405.6952005 -273.37937927 404.89625549 C-273.44495802 402.41009692 -273.50379799 399.92382955 -273.5625 397.4375 C-273.60567733 395.75584796 -273.64929136 394.07420706 -273.69335938 392.39257812 C-273.80064779 388.26183129 -273.90189132 384.13097464 -274 380 C-274.66 380.33 -275.32 380.66 -276 381 C-274.63146141 376.93039841 -272.81892472 374.41541717 -269.875 371.3125 C-266.82442411 368.01379114 -263.8688586 364.69687715 -261.0625 361.1875 C-260.43491476 360.4209418 -259.80732952 359.6543836 -259.16072655 358.86459637 C-256.91460011 356.01531009 -256.91460011 356.01531009 -255.1269474 352.70154285 C-252.57048838 348.37040614 -249.88280025 344.05857488 -244.98178816 342.25890517 C-238.97214177 341.06917209 -232.86383647 341.37129093 -226.77099609 341.52416992 C-224.72028844 341.52784077 -222.66956372 341.52577092 -220.61886597 341.51841736 C-215.07266942 341.51469816 -209.53015292 341.5909344 -203.9848094 341.68187881 C-198.18209134 341.76333603 -192.37928191 341.77079693 -186.57608032 341.78620911 C-175.59665264 341.82656031 -164.61891458 341.93316215 -153.64022982 342.06375247 C-141.13745219 342.20923236 -128.63459239 342.28057877 -116.13117862 342.34579313 C-90.41985022 342.48155243 -64.71001992 342.7101024 -39 343 C-39 342.34 -39 341.68 -39 341 C-38.32195312 340.78085937 -37.64390625 340.56171875 -36.9453125 340.3359375 C-30.88758312 338.2719466 -25.59227019 335.80167429 -20.19140625 332.3671875 C-18 331 -18 331 -15.7734375 329.9296875 C-13.40850968 328.68992357 -13.13429759 327.40204196 -12 325 C-11.21625 324.0925 -10.4325 323.185 -9.625 322.25 C-1.4673995 312.6485764 -0.70109009 301.58817457 -0.7215271 289.45262146 C-0.7128385 287.59123751 -0.7128385 287.59123751 -0.70397437 285.69224983 C-0.68996684 282.26924838 -0.68474838 278.84644236 -0.68332577 275.42342651 C-0.6796169 271.72414011 -0.66445408 268.02489808 -0.65071106 264.32563782 C-0.62848094 257.92351691 -0.61344217 251.52141188 -0.60334396 245.11926079 C-0.58873334 235.86293034 -0.56318987 226.60665521 -0.53501268 217.3503573 C-0.48958794 202.33116108 -0.4529553 187.31195687 -0.421875 172.29272461 C-0.39167176 157.70644734 -0.35731334 143.12018957 -0.31738281 128.53393555 C-0.31492126 127.63422739 -0.31245972 126.73451924 -0.30992357 125.8075472 C-0.29754863 121.29379321 -0.28509216 116.78003944 -0.27259517 112.26628578 C-0.16909204 74.84421745 -0.07986748 37.42212586 0 0 Z " fill="#F4F3F2" transform="translate(826,315)"/>
<path d="M0 0 C12.54 0 25.08 0 38 0 C41.4415432 10.32462959 44.57426392 19.86190848 47.0625 30.3125 C48.18654685 34.73375094 49.64216292 38.98777194 51.140625 43.29296875 C51.92732513 45.77107414 52.44482763 48.12797441 52.875 50.6875 C53.85823579 56.19716361 55.8233245 61.27937328 57.74633789 66.5144043 C59.79121563 72.17040891 61.25253916 77.75788874 62.45703125 83.65625 C62.76966669 85.94609214 62.76966669 85.94609214 64 87 C64.04063832 88.66617115 64.042721 90.33388095 64 92 C64.66 92 65.32 92 66 92 C66.226875 90.824375 66.45375 89.64875 66.6875 88.4375 C67.76700167 83.58351697 69.29335516 78.93137488 70.89672852 74.2277832 C72.9802428 68.11015028 74.92788879 61.95367812 76.85644531 55.78564453 C78.5119643 50.50315748 80.23667275 45.24740876 82 40 C83.74229201 34.78902414 85.47107351 29.57373797 87.19140625 24.35546875 C87.98171657 21.96612789 88.77208221 19.57680532 89.5625 17.1875 C89.96146484 15.97384766 90.36042969 14.76019531 90.77148438 13.50976562 C91.15755859 12.34509766 91.54363281 11.18042969 91.94140625 9.98046875 C92.28888916 8.92754639 92.63637207 7.87462402 92.99438477 6.78979492 C94 4 94 4 96 0 C105.9 0 115.8 0 126 0 C128.47525478 6.60067942 130.85159226 13.20467178 133.125 19.875 C133.48464844 20.89980469 133.84429688 21.92460937 134.21484375 22.98046875 C136.37468812 29.34675159 137.68503973 35.27774147 138 42 C138.66 42 139.32 42 140 42 C140.50471197 43.76949612 141.00360685 45.54065223 141.5 47.3125 C141.7784375 48.29863281 142.056875 49.28476562 142.34375 50.30078125 C143 53 143 53 143 56 C143.66 56 144.32 56 145 56 C145.2266333 56.71019287 145.4532666 57.42038574 145.68676758 58.15209961 C146.7280877 61.41408864 147.77028788 64.67579586 148.8125 67.9375 C149.16892578 69.05447266 149.52535156 70.17144531 149.89257812 71.32226562 C151.88727534 77.5625569 153.91248209 83.79012811 156 90 C158.73471333 87.26528667 158.84857554 84.89826206 159.6875 81.125 C161.21316318 74.57786275 163.20412201 68.31594515 165.5 62 C168.19751507 54.56632446 170.35438575 47.19664115 172.078125 39.48046875 C173.0556139 35.79003398 174.47757413 32.49594088 176 29 C176.50684014 27.20046151 176.96719439 25.38703289 177.375 23.5625 C178.6038144 18.41193751 180.05004966 13.36532455 181.625 8.3125 C181.84333496 7.60488525 182.06166992 6.89727051 182.28662109 6.16821289 C183.87469538 1.12530462 183.87469538 1.12530462 185 0 C187.8116338 -0.08861992 190.59858255 -0.11522355 193.41015625 -0.09765625 C194.25219101 -0.0962413 195.09422577 -0.09482635 195.96177673 -0.09336853 C198.66205335 -0.08775263 201.36224828 -0.07519748 204.0625 -0.0625 C205.88867068 -0.05748705 207.71484266 -0.05292379 209.54101562 -0.04882812 C214.02737542 -0.03777804 218.51367384 -0.02050279 223 0 C222.69994553 0.88469467 222.69994553 0.88469467 222.39382935 1.78726196 C220.48617892 7.42627761 218.74703007 13.10347647 217.0625 18.8125 C215.09132223 25.45287058 213.04492973 32.04849245 210.76171875 38.58984375 C209.98629961 41.04334944 209.45719971 43.46955805 209 46 C208.34 46 207.68 46 207 46 C206.92523437 46.57363281 206.85046875 47.14726562 206.7734375 47.73828125 C205.00912242 59.13714045 201.29034019 70.31211715 197 81 C196.59582781 82.429572 196.21799316 83.86702882 195.875 85.3125 C195.58625 86.529375 195.2975 87.74625 195 89 C194.34 89 193.68 89 193 89 C192.8453125 90.7325 192.8453125 90.7325 192.6875 92.5 C192.23267885 96.16419296 191.21442391 99.29933048 189.8203125 102.73046875 C188.49647201 106.39309411 187.69953152 110.17767274 186.84375 113.97265625 C186.05289744 116.81020595 184.97018568 119.35768242 183.77587891 122.04321289 C182.28226388 125.81014947 181.40506411 129.75925076 180.4375 133.6875 C180.02375693 135.35912448 179.60592719 137.02974392 179.18359375 138.69921875 C178.91373657 139.79496216 178.91373657 139.79496216 178.63842773 140.9128418 C178 143 178 143 176 147 C164.12 147 152.24 147 140 147 C136.43630324 137.49680865 132.96123239 128.09002779 129.81152344 118.46240234 C128.80392316 115.40504482 127.78098883 112.35296109 126.7578125 109.30078125 C126.35602783 108.10106689 125.95424316 106.90135254 125.5402832 105.6652832 C124.73496996 103.26119337 123.92884549 100.85737509 123.12182617 98.45385742 C121.29754247 92.99593693 119.53160382 87.54870507 118 82 C117.58482278 80.59032067 117.16666258 79.18151768 116.74609375 77.7734375 C116.42415039 76.690625 116.42415039 76.690625 116.09570312 75.5859375 C115.65444636 74.10373376 115.21172154 72.62196632 114.76757812 71.140625 C113.67179509 67.44608159 112.66866076 63.80159937 112 60 C111.34 60 110.68 60 110 60 C109.88825439 60.55034912 109.77650879 61.10069824 109.66137695 61.66772461 C108.51046104 67.1121529 107.00910571 72.30850055 105.1875 77.5625 C104.65112726 79.14021196 104.11599517 80.71834617 103.58203125 82.296875 C103.31600098 83.08255859 103.0499707 83.86824219 102.77587891 84.67773438 C101.59624883 88.2084585 100.47894981 91.75749554 99.375 95.3125 C99.17173096 95.96686035 98.96846191 96.6212207 98.7590332 97.29541016 C97.15602824 102.47255133 95.56934226 107.65477302 93.9921875 112.83984375 C93.22329281 115.28880362 92.42927816 117.72295211 91.61328125 120.15625 C89.78725516 125.60629717 88.04943027 131.08353412 86.3125 136.5625 C85.219375 140.006875 84.12625 143.45125 83 147 C70.79 147 58.58 147 46 147 C45.67 144.36 45.34 141.72 45 139 C44.34 139 43.68 139 43 139 C42.76925781 138.24283691 42.53851563 137.48567383 42.30078125 136.70556641 C39.81258839 128.57591257 37.25431588 120.47056587 34.64550781 112.37890625 C33.9985388 110.37046388 33.35470999 108.3610314 32.7109375 106.3515625 C30.85375424 100.57666242 28.9667649 94.82642697 26.84765625 89.140625 C25.05243522 84.2851427 23.68040538 79.39683992 22.4375 74.375 C20.87889843 68.1405937 19.0853915 62.07742665 17 56 C15.29856701 50.96089494 13.61106988 45.91707779 11.92138672 40.87402344 C11.39514305 39.3052946 10.86781878 37.7369278 10.33935547 36.16894531 C7.47267209 27.66032786 4.67980556 19.13702415 2.1171875 10.53125 C1.7948967 9.45997864 1.7948967 9.45997864 1.46609497 8.36706543 C0.61776665 5.4717271 0 3.03467098 0 0 Z " fill="#050301" transform="translate(400,393)"/>
<path d="M0 0 C14.19 0 28.38 0 43 0 C43 13.86 43 27.72 43 42 C51.91 42 60.82 42 70 42 C70 88.53 70 135.06 70 183 C61.09 183 52.18 183 43 183 C43 164.19 43 145.38 43 126 C51.58 126 60.16 126 69 126 C69 112.14 69 98.28 69 84 C60.42 84 51.84 84 43 84 C43.01160156 86.94808594 43.02320313 89.89617187 43.03515625 92.93359375 C43.04294616 95.77644747 43.0490233 98.61930002 43.05493164 101.4621582 C43.05997267 103.44393441 43.06680538 105.42570689 43.07543945 107.4074707 C43.08751515 110.24952109 43.09323045 113.09152247 43.09765625 115.93359375 C43.10281754 116.82525742 43.10797882 117.71692108 43.11329651 118.63560486 C43.11349177 120.75740601 43.0621003 122.8791078 43 125 C42 126 42 126 38.03100586 126.11352539 C36.25894395 126.11327421 34.48687716 126.10770978 32.71484375 126.09765625 C31.8902063 126.09664917 31.06556885 126.09564209 30.21594238 126.09460449 C27.12311419 126.08935592 24.03030576 126.07539477 20.9375 126.0625 C14.028125 126.041875 7.11875 126.02125 0 126 C0 144.81 0 163.62 0 183 C-24 184 -24 184 -42 183 C-42 136.47 -42 89.94 -42 42 C-28.14 42 -14.28 42 0 42 C0 28.14 0 14.28 0 0 Z " fill="#F7F8F7" transform="translate(128,337)"/>
<path d="M0 0 C1.77206191 0.00025118 3.5441287 0.00581561 5.31616211 0.01586914 C6.55311829 0.01737976 6.55311829 0.01737976 7.81506348 0.0189209 C10.90789166 0.02416947 14.0007001 0.03813062 17.09350586 0.05102539 C24.00288086 0.07165039 30.91225586 0.09227539 38.03100586 0.11352539 C38.03100586 13.97352539 38.03100586 27.83352539 38.03100586 42.11352539 C24.17100586 42.44352539 10.31100586 42.77352539 -3.96899414 43.11352539 C-4.29899414 56.64352539 -4.62899414 70.17352539 -4.96899414 84.11352539 C9.22100586 84.11352539 23.41100586 84.11352539 38.03100586 84.11352539 C38.03100586 90.38352539 38.03100586 96.65352539 38.03100586 103.11352539 C71.36100586 103.11352539 104.69100586 103.11352539 139.03100586 103.11352539 C139.03100586 103.44352539 139.03100586 103.77352539 139.03100586 104.11352539 C-41.14899414 104.44352539 -221.32899414 104.77352539 -406.96899414 105.11352539 C-402.9702811 103.11416887 -401.49020977 102.86778097 -397.19067383 102.88647461 C-395.44932159 102.8867012 -395.44932159 102.8867012 -393.67279053 102.88693237 C-392.42475647 102.89725494 -391.17672241 102.90757751 -389.89086914 102.91821289 C-387.96830292 102.92245773 -387.96830292 102.92245773 -386.00689697 102.92678833 C-382.60709776 102.93440751 -379.20747068 102.95404105 -375.80773926 102.97619629 C-372.3354729 102.99669181 -368.86317861 103.00579795 -365.39086914 103.01586914 C-358.58349983 103.03728875 -351.77627298 103.07245679 -344.96899414 103.11352539 C-344.96899414 96.84352539 -344.96899414 90.57352539 -344.96899414 84.11352539 C-331.10899414 84.11352539 -317.24899414 84.11352539 -302.96899414 84.11352539 C-303.00840537 73.2843981 -303.00840537 73.2843981 -303.05908203 62.45532227 C-303.06200719 61.0809741 -303.06455432 59.70662507 -303.06665039 58.33227539 C-303.07176636 57.63908203 -303.07688232 56.94588867 -303.08215332 56.23168945 C-303.08300554 51.37060487 -302.58151072 47.01365801 -301.96899414 42.11352539 C-288.10899414 42.11352539 -274.24899414 42.11352539 -259.96899414 42.11352539 C-259.96899414 55.97352539 -259.96899414 69.83352539 -259.96899414 84.11352539 C-246.10899414 84.11352539 -232.24899414 84.11352539 -217.96899414 84.11352539 C-218.00840537 73.2843981 -218.00840537 73.2843981 -218.05908203 62.45532227 C-218.06200719 61.0809741 -218.06455432 59.70662507 -218.06665039 58.33227539 C-218.07176636 57.63908203 -218.07688232 56.94588867 -218.08215332 56.23168945 C-218.08300554 51.37060487 -217.58151072 47.01365801 -216.96899414 42.11352539 C-203.10899414 42.11352539 -189.24899414 42.11352539 -174.96899414 42.11352539 C-174.96899414 55.97352539 -174.96899414 69.83352539 -174.96899414 84.11352539 C-188.82899414 84.44352539 -202.68899414 84.77352539 -216.96899414 85.11352539 C-217.29899414 91.05352539 -217.62899414 96.99352539 -217.96899414 103.11352539 C-175.72899414 103.11352539 -133.48899414 103.11352539 -89.96899414 103.11352539 C-89.96899414 97.17352539 -89.96899414 91.23352539 -89.96899414 85.11352539 C-88.96899414 84.11352539 -88.96899414 84.11352539 -85 84 C-83.22793809 84.00025118 -81.4558713 84.00581561 -79.68383789 84.01586914 C-78.44688171 84.01737976 -78.44688171 84.01737976 -77.18493652 84.0189209 C-74.09210834 84.02416947 -70.9992999 84.03813062 -67.90649414 84.05102539 C-60.99711914 84.07165039 -54.08774414 84.09227539 -46.96899414 84.11352539 C-46.96899414 70.25352539 -46.96899414 56.39352539 -46.96899414 42.11352539 C-33.10899414 42.11352539 -19.24899414 42.11352539 -4.96899414 42.11352539 C-5.0085993 28.66538534 -5.0085993 28.66538534 -5.05908203 15.21728516 C-5.06200114 13.53816796 -5.06454971 11.85905006 -5.06665039 10.17993164 C-5.07176636 9.29978394 -5.07688232 8.41963623 -5.08215332 7.51281738 C-5.0824631 5.3793866 -5.03143481 3.24604225 -4.96899414 1.11352539 C-3.96899414 0.11352539 -3.96899414 0.11352539 0 0 Z " fill="#F0F0F0" transform="translate(642.968994140625,168.886474609375)"/>
<path d="M0 0 C2.90834885 -0.26660183 5.60138268 -0.34779124 8.5078125 -0.29296875 C9.34843231 -0.28872391 10.18905212 -0.28447906 11.05514526 -0.28010559 C13.74541993 -0.26328532 16.43495099 -0.22562781 19.125 -0.1875 C20.94660378 -0.17245745 22.76821928 -0.1587683 24.58984375 -0.14648438 C29.06018324 -0.11337094 33.52996546 -0.06156637 38 0 C38.20752899 0.53311798 38.41505798 1.06623596 38.62887573 1.61550903 C40.43500953 6.25507447 40.43500953 6.25507447 42.24267578 10.89404297 C44.04537383 15.52291272 45.81451693 20.16263655 47.5625 24.8125 C49.67402697 30.33870756 52.13692446 35.65568213 54.66015625 41.00390625 C56.10563104 44.23620702 57.18475721 47.47301299 58.234375 50.84765625 C59.0812532 53.22842098 60.14882583 55.38234946 61.3125 57.625 C66.43646988 67.56611521 70.14977911 78.23419721 73.99584961 88.72119141 C74.94498639 91.29175653 75.88535215 93.78407988 77.171875 96.20703125 C78 98 78 98 78 102 C78.66 102 79.32 102 80 102 C83.94920124 110.76335721 87.60157003 119.49426665 90.734375 128.58984375 C92.50189342 133.35232394 94.64928584 137.880137 96.86328125 142.453125 C98 145 98 145 98 147 C85.13 147 72.26 147 59 147 C50 125.4 50 125.4 50 121 C29.21 121 8.42 121 -13 121 C-13.99 124.63 -14.98 128.26 -16 132 C-17.98 136.95 -19.96 141.9 -22 147 C-34.54 147 -47.08 147 -60 147 C-60 141.97920236 -59.52932672 140.53828147 -57.25 136.3125 C-54.89979239 131.80472475 -52.83876118 127.32668681 -51.00390625 122.58984375 C-49.831316 119.56483466 -48.61027386 116.56245081 -47.375 113.5625 C-46.97023438 112.57378906 -46.56546875 111.58507812 -46.1484375 110.56640625 C-45 108 -45 108 -43 105 C-42.52299584 103.70133548 -42.08933997 102.38635314 -41.6875 101.0625 C-40.1620516 96.31751227 -38.27283239 91.77786976 -36.328125 87.19140625 C-34.50414055 82.80847892 -32.82682747 78.37336894 -31.13671875 73.9375 C-29.83922959 70.58453832 -28.45287598 67.28808774 -27 64 C-26.34 64 -25.68 64 -25 64 C-24.84724609 62.77410156 -24.84724609 62.77410156 -24.69140625 61.5234375 C-23.8706936 57.34104875 -22.48095009 53.5856863 -20.9375 49.625 C-20.65583984 48.88894531 -20.37417969 48.15289062 -20.08398438 47.39453125 C-19.39433382 45.5944264 -18.69786068 43.7969379 -18 42 C-17.34 42 -16.68 42 -16 42 C-15.91234375 41.20722656 -15.8246875 40.41445313 -15.734375 39.59765625 C-14.78535442 34.94846502 -13.06332795 30.80958003 -11.25 26.4375 C-10.52264571 24.65657317 -9.79608408 22.87532241 -9.0703125 21.09375 C-8.71614258 20.2275 -8.36197266 19.36125 -7.99707031 18.46875 C-6.25430275 14.1536507 -4.62999189 9.79532783 -3.0078125 5.43359375 C-2 3 -2 3 0 0 Z " fill="#040301" transform="translate(665,393)"/>
<path d="M0 0 C24.39113037 -0.18519447 48.78209139 -0.32795758 73.1737833 -0.41449738 C84.49931841 -0.45574754 95.82440864 -0.51198524 107.1496582 -0.60351562 C117.0208368 -0.68325621 126.89169323 -0.73486646 136.76318496 -0.75270796 C141.99021437 -0.76313734 147.21632213 -0.78764405 152.44305611 -0.84584045 C157.36397189 -0.90018728 162.28358747 -0.91688378 167.20477486 -0.90486145 C169.00958323 -0.90706038 170.81443555 -0.92294917 172.61898422 -0.9536438 C186.24992938 -1.17410611 186.24992938 -1.17410611 190.57230949 1.72573853 C192.36455357 3.7380721 193.6785601 5.66050994 195 8 C195.85873375 9.11557682 196.7330477 10.21939387 197.625 11.30859375 C198.800625 12.85740234 198.800625 12.85740234 200 14.4375 C200.85127587 15.55620775 201.7028402 16.67469606 202.5546875 17.79296875 C203.17102051 18.60386963 203.17102051 18.60386963 203.79980469 19.43115234 C206.10521768 22.44469667 208.46469967 25.41625673 210.8203125 28.390625 C212 30 212 30 212 31 C198.14 31 184.28 31 170 31 C170 21.1 170 11.2 170 1 C155.81 1 141.62 1 127 1 C127 10.9 127 20.8 127 31 C130.031875 30.979375 133.06375 30.95875 136.1875 30.9375 C147.15526683 30.90169187 158.04887682 31.40402051 169 32 C169 45.53 169 59.06 169 73 C155.47 73.33 141.94 73.66 128 74 C127.67 87.53 127.34 101.06 127 115 C113.14 115 99.28 115 85 115 C84.505 94.21 84.505 94.21 84 73 C70.47 73.33 56.94 73.66 43 74 C42.67 87.53 42.34 101.06 42 115 C28.14 115 14.28 115 0 115 C-0.020625 108.255625 -0.04125 101.51125 -0.0625 94.5625 C-0.071604 92.43111572 -0.08070801 90.29973145 -0.09008789 88.10375977 C-0.093007 86.42464257 -0.09555557 84.74552467 -0.09765625 83.06640625 C-0.10277222 82.18625854 -0.10788818 81.30611084 -0.11315918 80.39929199 C-0.11346896 78.26586121 -0.06244067 76.13251686 0 74 C1 73 1 73 4.87719727 72.88647461 C6.60694167 72.88663379 8.33669081 72.89233151 10.06640625 72.90234375 C10.97502914 72.9037587 11.88365204 72.90517365 12.81980896 72.90663147 C15.73407221 72.91224807 18.64825981 72.92480335 21.5625 72.9375 C23.53320202 72.94251286 25.50390524 72.94707614 27.47460938 72.95117188 C32.31643559 72.96222289 37.15820495 72.97949862 42 73 C41.99476318 71.7632251 41.98952637 70.5264502 41.98413086 69.25219727 C41.96608439 64.68075275 41.95456929 60.10931141 41.94506836 55.5378418 C41.94002733 53.55606559 41.93319462 51.57429311 41.92456055 49.5925293 C41.91248485 46.75047891 41.90676955 43.90847753 41.90234375 41.06640625 C41.89718246 40.17474258 41.89202118 39.28307892 41.88670349 38.36439514 C41.88650823 36.24259399 41.9378997 34.1208922 42 32 C43 31 43 31 45.97265625 30.9375 C47.33598035 30.95531004 48.69926333 30.97642908 50.0625 31 C61.39422524 31.10973829 72.68119316 30.51743117 84 30 C84 20.43 84 10.86 84 1 C70.14 1 56.28 1 42 1 C42 10.9 42 20.8 42 31 C28.14 31 14.28 31 0 31 C0 20.77 0 10.54 0 0 Z " fill="#F2F2F2" transform="translate(256,658)"/>
<path d="M0 0 C0.68884277 -0.00128906 1.37768555 -0.00257813 2.08740234 -0.00390625 C14.79689533 0.01960264 25.79782825 2.54926652 37.4375 7.6875 C37.4375 8.3475 37.4375 9.0075 37.4375 9.6875 C38.613125 9.9040625 38.613125 9.9040625 39.8125 10.125 C42.4375 10.6875 42.4375 10.6875 44.4375 11.6875 C44.4375 12.3475 44.4375 13.0075 44.4375 13.6875 C44.994375 13.93886719 45.55125 14.19023437 46.125 14.44921875 C48.81340061 15.88878462 51.05316457 17.59907404 53.4375 19.5 C54.283125 20.16644531 55.12875 20.83289063 56 21.51953125 C59.77135021 24.87385716 62.38392576 27.71265415 63.4375 32.6875 C61.0498671 34.65600562 58.65104967 36.61039078 56.25 38.5625 C55.57646484 39.11808594 54.90292969 39.67367187 54.20898438 40.24609375 C50.7599728 43.0389519 47.74974151 45.36452105 43.4375 46.6875 C43.4375 47.3475 43.4375 48.0075 43.4375 48.6875 C41.1875 50.4375 41.1875 50.4375 38.4375 51.6875 C35.26410423 50.53698599 33.33502163 48.75572748 31.0625 46.3125 C23.1211575 38.23740857 13.76425627 34.51312155 2.4375 34.25 C-6.87472366 34.55835178 -15.25530802 36.14691214 -22.94140625 41.6015625 C-24.5625 42.6875 -24.5625 42.6875 -27.5625 43.6875 C-27.5625 44.3475 -27.5625 45.0075 -27.5625 45.6875 C-28.89583333 47.02083333 -30.22916667 48.35416667 -31.5625 49.6875 C-31.8925 50.6775 -32.2225 51.6675 -32.5625 52.6875 C-33.2225 52.6875 -33.8825 52.6875 -34.5625 52.6875 C-34.665625 53.326875 -34.76875 53.96625 -34.875 54.625 C-35.44633292 57.17002848 -36.17248465 59.36268781 -37.078125 61.79296875 C-38.69751433 66.61891495 -39.06529361 70.99758143 -39 76.0625 C-38.99242676 76.89249512 -38.98485352 77.72249023 -38.97705078 78.57763672 C-38.69797963 89.00919418 -35.22715109 97.62719256 -28.5625 105.6875 C-26.73297962 107.40290542 -24.87915689 108.97939054 -22.8828125 110.49609375 C-22.44710937 110.88925781 -22.01140625 111.28242188 -21.5625 111.6875 C-21.5625 112.3475 -21.5625 113.0075 -21.5625 113.6875 C-18.2625 114.3475 -14.9625 115.0075 -11.5625 115.6875 C-11.5625 116.3475 -11.5625 117.0075 -11.5625 117.6875 C5.63196537 118.02137311 19.22432395 117.20524573 32.4375 104.6875 C32.7675 104.0275 33.0975 103.3675 33.4375 102.6875 C34.0975 102.6875 34.7575 102.6875 35.4375 102.6875 C35.9325 101.2025 35.9325 101.2025 36.4375 99.6875 C38.4175 100.1825 38.4175 100.1825 40.4375 100.6875 C40.4375 101.3475 40.4375 102.0075 40.4375 102.6875 C41.860625 103.1515625 41.860625 103.1515625 43.3125 103.625 C46.4375 104.6875 46.4375 104.6875 48.4375 105.6875 C48.4375 106.3475 48.4375 107.0075 48.4375 107.6875 C50.4175 108.1825 50.4175 108.1825 52.4375 108.6875 C52.4375 109.3475 52.4375 110.0075 52.4375 110.6875 C55.4075 111.6775 55.4075 111.6775 58.4375 112.6875 C58.4375 113.3475 58.4375 114.0075 58.4375 114.6875 C60.0875 115.3475 61.7375 116.0075 63.4375 116.6875 C62.82394969 120.6519789 60.83893734 123.2399654 58.5 126.4375 C57.78972656 127.42234375 57.07945312 128.4071875 56.34765625 129.421875 C55.71730469 130.16953125 55.08695313 130.9171875 54.4375 131.6875 C53.7775 131.6875 53.1175 131.6875 52.4375 131.6875 C52.4375 132.3475 52.4375 133.0075 52.4375 133.6875 C50.9765625 134.9765625 50.9765625 134.9765625 49.0625 136.3125 C48.43601562 136.75851562 47.80953125 137.20453125 47.1640625 137.6640625 C45.4375 138.6875 45.4375 138.6875 43.4375 138.6875 C43.4375 139.3475 43.4375 140.0075 43.4375 140.6875 C41.83717863 141.52819415 40.23208829 142.35981505 38.625 143.1875 C37.73167969 143.6515625 36.83835937 144.115625 35.91796875 144.59375 C33.4375 145.6875 33.4375 145.6875 30.4375 145.6875 C30.4375 146.3475 30.4375 147.0075 30.4375 147.6875 C21.30992138 151.13026426 13.17522793 152.30269886 3.4440918 152.15405273 C1.37272249 152.12496802 -0.69608907 152.13352381 -2.76757812 152.14648438 C-11.07512052 152.13129556 -18.61489781 151.1543861 -26.5625 148.6875 C-26.5625 148.0275 -26.5625 147.3675 -26.5625 146.6875 C-27.38363281 146.60242188 -28.20476562 146.51734375 -29.05078125 146.4296875 C-45.37142315 142.9803861 -57.72693461 130.57446537 -66.9140625 117.375 C-71.19468935 110.39615813 -73.40144945 102.53335231 -75.5625 94.6875 C-75.73450928 94.12313232 -75.90651855 93.55876465 -76.08374023 92.97729492 C-77.13747438 87.93753327 -76.86955831 82.67290105 -76.91259766 77.5378418 C-76.92897441 76.11547272 -76.95601526 74.6931794 -76.99462891 73.27124023 C-77.54909243 52.67653626 -69.6327215 37.21709337 -56.01171875 21.94921875 C-54.6875 20.5625 -54.6875 20.5625 -52.5625 18.6875 C-51.9025 18.6875 -51.2425 18.6875 -50.5625 18.6875 C-50.5625 18.0275 -50.5625 17.3675 -50.5625 16.6875 C-48.58700469 15.29622129 -46.63638063 14.04100416 -44.5625 12.8125 C-43.96236084 12.45317383 -43.36222168 12.09384766 -42.74389648 11.72363281 C-41.02277279 10.70140371 -39.292851 9.69403094 -37.5625 8.6875 C-36.85222656 8.26726562 -36.14195312 7.84703125 -35.41015625 7.4140625 C-24.37877357 1.37938926 -12.3667602 -0.08645999 0 0 Z " fill="#050301" transform="translate(337.5625,390.3125)"/>
<path d="M0 0 C1.33278992 0.00303635 1.33278992 0.00303635 2.69250488 0.00613403 C3.5987561 0.00517731 4.50500732 0.00422058 5.4387207 0.00323486 C7.35876535 0.002553 9.27881229 0.00440771 11.19885254 0.00857544 C14.14861192 0.01392361 17.09821902 0.00863066 20.04797363 0.00222778 C21.90865105 0.00288856 23.76932838 0.00416972 25.63000488 0.00613403 C26.51853149 0.0041098 27.40705811 0.00208557 28.32250977 0 C34.546305 0.02399665 34.546305 0.02399665 35.66125488 1.13894653 C35.74996761 4.16872457 35.77644839 7.17561675 35.75891113 10.20535278 C35.75749619 11.11397568 35.75608124 12.02259857 35.75462341 12.95875549 C35.74900682 15.87301874 35.73645153 18.78720634 35.72375488 21.70144653 C35.71874202 23.67214855 35.71417874 25.64285177 35.71008301 27.61355591 C35.69988105 32.45540567 35.68030897 37.29709101 35.66125488 42.13894653 C44.57125488 42.13894653 53.48125488 42.13894653 62.66125488 42.13894653 C62.66125488 55.99894653 62.66125488 69.85894653 62.66125488 84.13894653 C53.75125488 84.13894653 44.84125488 84.13894653 35.66125488 84.13894653 C35.66125488 97.99894653 35.66125488 111.85894653 35.66125488 126.13894653 C28.75187988 126.15957153 21.84250488 126.18019653 14.72375488 126.20144653 C11.44836792 126.21510254 11.44836792 126.21510254 8.10681152 126.22903442 C6.38667869 126.23195351 4.66654516 126.23450209 2.94641113 126.23660278 C1.59380188 126.24427673 1.59380188 126.24427673 0.21386719 126.25210571 C-1.97066256 126.25241536 -4.15510842 126.20140523 -6.33874512 126.13894653 C-7.33874512 125.13894653 -7.33874512 125.13894653 -7.45227051 121.26174927 C-7.45201935 119.53200487 -7.44645555 117.80225548 -7.43640137 116.07254028 C-7.43539429 115.26756104 -7.43438721 114.46258179 -7.43334961 113.63320923 C-7.42810126 110.61427392 -7.41414011 107.59535886 -7.40124512 104.57644653 C-7.37030762 94.45988403 -7.37030762 94.45988403 -7.33874512 84.13894653 C-21.19874512 84.13894653 -35.05874512 84.13894653 -49.33874512 84.13894653 C-49.33874512 70.27894653 -49.33874512 56.41894653 -49.33874512 42.13894653 C-35.47874512 42.13894653 -21.61874512 42.13894653 -7.33874512 42.13894653 C-7.37835027 28.69080648 -7.37835027 28.69080648 -7.42883301 15.2427063 C-7.43175211 13.5635891 -7.43430068 11.8844712 -7.43640137 10.20535278 C-7.44151733 9.32520508 -7.4466333 8.44505737 -7.4519043 7.53823853 C-7.45221407 5.40480774 -7.40118579 3.27146339 -7.33874512 1.13894653 C-5.41617337 -0.78362522 -2.55789404 0.00986229 0 0 Z " fill="#F4F4F4" transform="translate(135.3387451171875,520.8610534667969)"/>
<path d="M0 0 C14.19 0 28.38 0 43 0 C43 13.53 43 27.06 43 41 C29.14 41.33 15.28 41.66 1 42 C0.67 55.53 0.34 69.06 0 83 C-13.53 83.33 -27.06 83.66 -41 84 C-41.28935866 97.11890545 -41.28935866 97.11890545 -41.56811523 110.23803711 C-41.60622185 111.87614835 -41.64468958 113.51425125 -41.68359375 115.15234375 C-41.70006958 116.01089966 -41.71654541 116.86945557 -41.73352051 117.75402832 C-41.8859282 123.8859282 -41.8859282 123.8859282 -43 125 C-46.01808063 125.101137 -49.01280513 125.13968909 -52.03125 125.1328125 C-52.93750122 125.13376923 -53.84375244 125.13472595 -54.77746582 125.13571167 C-56.69751047 125.13639353 -58.61755741 125.13453882 -60.53759766 125.13037109 C-63.48735704 125.12502292 -66.43696414 125.13031588 -69.38671875 125.13671875 C-71.24739617 125.13605797 -73.1080735 125.13477681 -74.96875 125.1328125 C-76.30153992 125.13584885 -76.30153992 125.13584885 -77.66125488 125.13894653 C-83.88505012 125.11494988 -83.88505012 125.11494988 -85 124 C-85.08868299 121.04294679 -85.11520296 118.10934944 -85.09765625 115.15234375 C-85.0962413 114.2659169 -85.09482635 113.37949005 -85.09336853 112.46620178 C-85.08775215 109.62326746 -85.07519691 106.78041069 -85.0625 103.9375 C-85.05748711 102.01497509 -85.05292384 100.09244896 -85.04882812 98.16992188 C-85.03777741 93.44658451 -85.02050183 88.72330542 -85 84 C-81.56395235 82.28197618 -77.61561104 82.8803382 -73.8359375 82.90234375 C-72.92872955 82.9037587 -72.02152161 82.90517365 -71.08682251 82.90663147 C-68.18284845 82.91223904 -65.27895085 82.92479282 -62.375 82.9375 C-60.40885528 82.94251402 -58.44270935 82.9470771 -56.4765625 82.95117188 C-51.6510121 82.96221094 -46.82551903 82.97948065 -42 83 C-42.00523682 81.7632251 -42.01047363 80.5264502 -42.01586914 79.25219727 C-42.03391561 74.68075275 -42.04543071 70.10931141 -42.05493164 65.5378418 C-42.05997267 63.55606559 -42.06680538 61.57429311 -42.07543945 59.5925293 C-42.08751515 56.75047891 -42.09323045 53.90847753 -42.09765625 51.06640625 C-42.10281754 50.17474258 -42.10797882 49.28307892 -42.11329651 48.36439514 C-42.11349177 46.24259399 -42.0621003 44.1208922 -42 42 C-41 41 -41 41 -37.12280273 40.88647461 C-35.39305834 40.88672577 -33.66330895 40.89228957 -31.93359375 40.90234375 C-31.1286145 40.90335083 -30.32363525 40.90435791 -29.4942627 40.90539551 C-26.47532739 40.91064386 -23.45641233 40.924605 -20.4375 40.9375 C-13.693125 40.958125 -6.94875 40.97875 0 41 C0 27.47 0 13.94 0 0 Z " fill="#F0F0F0" transform="translate(638,690)"/>
<path d="M0 0 C13.86 0 27.72 0 42 0 C42 13.86 42 27.72 42 42 C28.14 42.33 14.28 42.66 0 43 C-0.33 56.53 -0.66 70.06 -1 84 C-14.86 84 -28.72 84 -43 84 C-43 70.14 -43 56.28 -43 42 C-29.14 42 -15.28 42 -1 42 C-1.03958233 28.92600479 -1.03958233 28.92600479 -1.09008789 15.85205078 C-1.09300772 14.21647201 -1.09555612 12.58089252 -1.09765625 10.9453125 C-1.10277222 10.09187256 -1.10788818 9.23843262 -1.11315918 8.35913086 C-1.1140718 2.2281436 -1.1140718 2.2281436 0 0 Z " fill="#F0F0EF" transform="translate(426,127)"/>
<path d="M0 0 C5.07375 -0.020625 10.1475 -0.04125 15.375 -0.0625 C16.95458496 -0.071604 18.53416992 -0.08070801 20.16162109 -0.09008789 C21.43602051 -0.09258545 22.71041992 -0.09508301 24.0234375 -0.09765625 C25.31169434 -0.10289307 26.59995117 -0.10812988 27.92724609 -0.11352539 C32.63099901 0.01758869 37.31777298 0.5317773 42 1 C42 14.53 42 28.06 42 42 C28.47 42.33 14.94 42.66 1 43 C0.67 56.53 0.34 70.06 0 84 C-13.86 84 -27.72 84 -42 84 C-42.020625 77.255625 -42.04125 70.51125 -42.0625 63.5625 C-42.071604 61.43111572 -42.08070801 59.29973145 -42.09008789 57.10375977 C-42.093007 55.42464257 -42.09555557 53.74552467 -42.09765625 52.06640625 C-42.10277222 51.18625854 -42.10788818 50.30611084 -42.11315918 49.39929199 C-42.11346896 47.26586121 -42.06244067 45.13251686 -42 43 C-41 42 -41 42 -37.12280273 41.88647461 C-35.39305834 41.88672577 -33.66330895 41.89228957 -31.93359375 41.90234375 C-31.1286145 41.90335083 -30.32363525 41.90435791 -29.4942627 41.90539551 C-26.47532739 41.91064386 -23.45641233 41.924605 -20.4375 41.9375 C-13.693125 41.958125 -6.94875 41.97875 0 42 C0 28.14 0 14.28 0 0 Z " fill="#F1F1F0" transform="translate(213,689)"/>
<path d="M0 0 C13.86 0 27.72 0 42 0 C42 20.13 42 40.26 42 61 C13.95 61 -14.1 61 -43 61 C-43 54.73 -43 48.46 -43 42 C-29.14 42 -15.28 42 -1 42 C-1.03941123 31.17087271 -1.03941123 31.17087271 -1.09008789 20.34179688 C-1.09301304 18.96744871 -1.09556018 17.59309968 -1.09765625 16.21875 C-1.10277222 15.52555664 -1.10788818 14.83236328 -1.11315918 14.11816406 C-1.1140114 9.25707948 -0.61251658 4.90013262 0 0 Z " fill="#EFF0EF" transform="translate(341,211)"/>
<path d="M0 0 C8.91 0 17.82 0 27 0 C27 46.53 27 93.06 27 141 C18.09 141 9.18 141 0 141 C0 122.19 0 103.38 0 84 C8.58 84 17.16 84 26 84 C26 70.14 26 56.28 26 42 C17.42 42 8.84 42 0 42 C0 28.14 0 14.28 0 0 Z " fill="#F0F0EF" transform="translate(171,379)"/>
<path d="M0 0 C1.77206191 0.00025118 3.5441287 0.00581561 5.31616211 0.01586914 C6.55311829 0.01737976 6.55311829 0.01737976 7.81506348 0.0189209 C10.90789166 0.02416947 14.0007001 0.03813062 17.09350586 0.05102539 C24.00288086 0.07165039 30.91225586 0.09227539 38.03100586 0.11352539 C38.03100586 13.97352539 38.03100586 27.83352539 38.03100586 42.11352539 C24.17100586 42.44352539 10.31100586 42.77352539 -3.96899414 43.11352539 C-4.29899414 49.05352539 -4.62899414 54.99352539 -4.96899414 61.11352539 C-19.15899414 61.11352539 -33.34899414 61.11352539 -47.96899414 61.11352539 C-47.96899414 43.11352539 -47.96899414 43.11352539 -46.96899414 42.11352539 C-43.86648214 42.02478404 -40.78631294 41.99834084 -37.68383789 42.01586914 C-36.75301895 42.01728409 -35.82220001 42.01869904 -34.86317444 42.02015686 C-31.87758223 42.02577367 -28.89206385 42.03832899 -25.90649414 42.05102539 C-23.88761501 42.05603823 -21.86873471 42.06060151 -19.84985352 42.06469727 C-14.88953842 42.07574856 -9.92927882 42.09302444 -4.96899414 42.11352539 C-4.97423096 40.87675049 -4.97946777 39.63997559 -4.98486328 38.36572266 C-5.00290975 33.79427814 -5.01442485 29.2228368 -5.02392578 24.65136719 C-5.02896681 22.66959098 -5.03579952 20.6878185 -5.04443359 18.70605469 C-5.05650929 15.86400431 -5.06222459 13.02200292 -5.06665039 10.17993164 C-5.07181168 9.28826797 -5.07697296 8.39660431 -5.08229065 7.47792053 C-5.08248591 5.35611938 -5.03109444 3.23441759 -4.96899414 1.11352539 C-3.96899414 0.11352539 -3.96899414 0.11352539 0 0 Z " fill="#FEFEFE" transform="translate(557.968994140625,210.886474609375)"/>
<path d="M0 0 C13.86 0 27.72 0 42 0 C42 18.81 42 37.62 42 57 C18 58 18 58 0 57 C0 38.19 0 19.38 0 0 Z " fill="#F1F1F1" transform="translate(86,463)"/>
<path d="M0 0 C14.19 0 28.38 0 43 0 C43 13.86 43 27.72 43 42 C36.090625 42.020625 29.18125 42.04125 22.0625 42.0625 C19.87890869 42.071604 17.69531738 42.08070801 15.44555664 42.09008789 C13.7254238 42.09300698 12.00529028 42.09555555 10.28515625 42.09765625 C8.932547 42.1053302 8.932547 42.1053302 7.5526123 42.11315918 C5.36808255 42.11346882 3.1836367 42.0624587 1 42 C0 41 0 41 -0.11352539 37.12280273 C-0.11327423 35.39305834 -0.10771043 33.66330895 -0.09765625 31.93359375 C-0.09664917 31.1286145 -0.09564209 30.32363525 -0.09460449 29.4942627 C-0.08935614 26.47532739 -0.075395 23.45641233 -0.0625 20.4375 C-0.041875 13.693125 -0.02125 6.94875 0 0 Z " fill="#F0F0F0" transform="translate(638,773)"/>
<path d="M0 0 C1.77206191 0.00025118 3.5441287 0.00581561 5.31616211 0.01586914 C6.14079956 0.01687622 6.96543701 0.0178833 7.81506348 0.0189209 C10.90789166 0.02416947 14.0007001 0.03813062 17.09350586 0.05102539 C24.00288086 0.07165039 30.91225586 0.09227539 38.03100586 0.11352539 C38.03100586 13.97352539 38.03100586 27.83352539 38.03100586 42.11352539 C23.84100586 42.11352539 9.65100586 42.11352539 -4.96899414 42.11352539 C-4.98961914 35.36915039 -5.01024414 28.62477539 -5.03149414 21.67602539 C-5.04059814 19.54464111 -5.04970215 17.41325684 -5.05908203 15.21728516 C-5.06200114 13.53816796 -5.06454971 11.85905006 -5.06665039 10.17993164 C-5.07176636 9.29978394 -5.07688232 8.41963623 -5.08215332 7.51281738 C-5.0824631 5.3793866 -5.03143481 3.24604225 -4.96899414 1.11352539 C-3.96899414 0.11352539 -3.96899414 0.11352539 0 0 Z " fill="#FEFEFE" transform="translate(642.968994140625,730.886474609375)"/>
<path d="M0 0 C1.77206191 0.00025118 3.5441287 0.00581561 5.31616211 0.01586914 C6.14079956 0.01687622 6.96543701 0.0178833 7.81506348 0.0189209 C10.90789166 0.02416947 14.0007001 0.03813062 17.09350586 0.05102539 C24.00288086 0.07165039 30.91225586 0.09227539 38.03100586 0.11352539 C38.03100586 13.97352539 38.03100586 27.83352539 38.03100586 42.11352539 C31.12163086 42.13415039 24.21225586 42.15477539 17.09350586 42.17602539 C14.90991455 42.18512939 12.72632324 42.1942334 10.4765625 42.20361328 C8.75642966 42.20653237 7.03629614 42.20908094 5.31616211 42.21118164 C3.96355286 42.21885559 3.96355286 42.21885559 2.58361816 42.22668457 C0.39908841 42.22699421 -1.78535744 42.17598409 -3.96899414 42.11352539 C-5.86522616 40.21729337 -5.0979704 37.4498218 -5.10794067 34.92724609 C-5.10591644 34.06059326 -5.10389221 33.19394043 -5.10180664 32.30102539 C-5.10276337 31.41697021 -5.10372009 30.53291504 -5.10470581 29.62207031 C-5.10538766 27.7491041 -5.10353307 25.87613553 -5.09936523 24.00317383 C-5.09401703 21.12584152 -5.09931007 18.24866531 -5.10571289 15.37133789 C-5.10505211 13.55623338 -5.10377095 11.74112896 -5.10180664 9.92602539 C-5.10383087 9.05937256 -5.1058551 8.19271973 -5.10794067 7.29980469 C-5.07966305 0.14529392 -5.07966305 0.14529392 0 0 Z " fill="#F1F1F1" transform="translate(132.968994140625,252.886474609375)"/>
<path d="M0 0 C1.72447899 0.00050087 3.44897866 0.01157496 5.17333984 0.03173828 C5.97731201 0.03375244 6.78128418 0.0357666 7.60961914 0.0378418 C10.61789643 0.04831965 13.62609251 0.0762422 16.63427734 0.10205078 C26.71990234 0.16392578 26.71990234 0.16392578 37.00927734 0.22705078 C37.00927734 14.08705078 37.00927734 27.94705078 37.00927734 42.22705078 C22.81927734 42.22705078 8.62927734 42.22705078 -5.99072266 42.22705078 C-6.03197266 35.66830078 -6.07322266 29.10955078 -6.11572266 22.35205078 C-6.13393066 20.28197754 -6.15213867 18.2119043 -6.17089844 16.07910156 C-6.17673809 14.44352478 -6.18183489 12.8079451 -6.18603516 11.17236328 C-6.19626709 10.31892334 -6.20649902 9.4654834 -6.21704102 8.58618164 C-6.21767247 6.46512945 -6.11403151 4.34451571 -5.99072266 2.22705078 C-3.99072266 0.22705078 -3.99072266 0.22705078 0 0 Z " fill="#F2F3F2" transform="translate(814.99072265625,772.77294921875)"/>
<path d="M0 0 C1.77206192 0.00015919 3.54412846 0.00585754 5.31616211 0.01586914 C6.24698105 0.01728409 7.17779999 0.01869904 8.13682556 0.02015686 C11.12241777 0.02577367 14.10793615 0.03832899 17.09350586 0.05102539 C19.11238499 0.05603823 21.13126529 0.06060151 23.15014648 0.06469727 C28.11046158 0.07574856 33.07072118 0.09302444 38.03100586 0.11352539 C38.05565224 5.93424162 38.07384016 11.75492773 38.0859375 17.57568359 C38.09097853 19.55745981 38.09781124 21.53923228 38.10644531 23.52099609 C38.11852101 26.36304648 38.12423631 29.20504786 38.12866211 32.04711914 C38.13382339 32.93878281 38.13898468 33.83044647 38.14430237 34.74913025 C38.14449762 36.8709314 38.09310616 38.99263319 38.03100586 41.11352539 C37.03100586 42.11352539 37.03100586 42.11352539 33.06201172 42.22705078 C31.28994979 42.22689159 29.51788326 42.22119324 27.74584961 42.21118164 C26.81503067 42.20976669 25.88421173 42.20835175 24.92518616 42.20689392 C21.93959395 42.20127711 18.95407557 42.18872179 15.96850586 42.17602539 C13.94962673 42.17101255 11.93074643 42.16644927 9.91186523 42.16235352 C4.95155014 42.15130222 -0.00870946 42.13402634 -4.96899414 42.11352539 C-4.99364052 36.29280917 -5.01182844 30.47212305 -5.02392578 24.65136719 C-5.02896681 22.66959098 -5.03579952 20.6878185 -5.04443359 18.70605469 C-5.05650929 15.86400431 -5.06222459 13.02200292 -5.06665039 10.17993164 C-5.07181168 9.28826797 -5.07697296 8.39660431 -5.08229065 7.47792053 C-5.08248591 5.35611938 -5.03109444 3.23441759 -4.96899414 1.11352539 C-3.96899414 0.11352539 -3.96899414 0.11352539 0 0 Z " fill="#F0F0F0" transform="translate(132.968994140625,420.886474609375)"/>
<path d="M0 0 C1.77206192 0.00015919 3.54412846 0.00585754 5.31616211 0.01586914 C6.24698105 0.01728409 7.17779999 0.01869904 8.13682556 0.02015686 C11.12241777 0.02577367 14.10793615 0.03832899 17.09350586 0.05102539 C19.11238499 0.05603823 21.13126529 0.06060151 23.15014648 0.06469727 C28.11046158 0.07574856 33.07072118 0.09302444 38.03100586 0.11352539 C38.05565224 5.93424162 38.07384016 11.75492773 38.0859375 17.57568359 C38.09097853 19.55745981 38.09781124 21.53923228 38.10644531 23.52099609 C38.11852101 26.36304648 38.12423631 29.20504786 38.12866211 32.04711914 C38.13382339 32.93878281 38.13898468 33.83044647 38.14430237 34.74913025 C38.14449762 36.8709314 38.09310616 38.99263319 38.03100586 41.11352539 C35.91266551 43.23186574 31.18497212 42.27771653 28.25366211 42.28149414 C27.37197861 42.28482254 26.4902951 42.28815094 25.58189392 42.2915802 C23.71312992 42.29665323 21.84435682 42.29898841 19.97558594 42.29882812 C17.10914242 42.30101347 14.24308426 42.31916194 11.37670898 42.33813477 C9.56486135 42.34106878 7.75301188 42.34305352 5.94116211 42.34399414 C5.07967056 42.35117966 4.21817902 42.35836517 3.33058167 42.36576843 C-2.74017254 42.34234699 -2.74017254 42.34234699 -4.96899414 40.11352539 C-5.15668067 37.18429509 -5.22453055 34.35124142 -5.19946289 31.42211914 C-5.19900467 30.56167496 -5.19854645 29.70123077 -5.19807434 28.81471252 C-5.19505119 26.99478782 -5.18716302 25.17486572 -5.17480469 23.35498047 C-5.15654562 20.55890815 -5.15429499 17.76316673 -5.15454102 14.96704102 C-5.14962604 13.20206417 -5.14379781 11.43708959 -5.13696289 9.67211914 C-5.13585007 8.83047714 -5.13473724 7.98883514 -5.1335907 7.12168884 C-5.07610618 0.14519219 -5.07610618 0.14519219 0 0 Z " fill="#F0F0F0" transform="translate(344.968994140625,126.886474609375)"/>
<path d="M0 0 C13.86 0 27.72 0 42 0 C43.66127775 3.32255551 43.14161724 7.03934429 43.1328125 10.69140625 C43.13376923 11.55185043 43.13472595 12.41229462 43.13571167 13.29881287 C43.13639265 15.11872429 43.13454409 16.93863815 43.13037109 18.75854492 C43.12501517 21.55457979 43.1303222 24.35045448 43.13671875 27.14648438 C43.13605808 28.91145869 43.13477715 30.6764329 43.1328125 32.44140625 C43.13483673 33.28304825 43.13686096 34.12469025 43.13894653 34.99183655 C43.11495472 40.88504528 43.11495472 40.88504528 42 42 C38.89769856 42.08873532 35.81712641 42.11525687 32.71484375 42.09765625 C31.47788757 42.09614563 31.47788757 42.09614563 30.21594238 42.09460449 C27.12311419 42.08935592 24.03030576 42.07539477 20.9375 42.0625 C14.028125 42.041875 7.11875 42.02125 0 42 C0 28.14 0 14.28 0 0 Z " fill="#F0F1F0" transform="translate(681,211)"/>
<path d="M0 0 C13.86 0 27.72 0 42 0 C42 13.86 42 27.72 42 42 C28.14 42 14.28 42 0 42 C-1.44824657 39.10350685 -1.12985014 36.5728336 -1.1328125 33.33984375 C-1.13376923 32.67594131 -1.13472595 32.01203888 -1.13571167 31.32801819 C-1.13639295 29.91830348 -1.1345423 28.50858565 -1.13037109 27.09887695 C-1.12508111 24.97014022 -1.1302868 22.84162025 -1.13671875 20.71289062 C-1.1360568 19.33854121 -1.13477325 17.96419193 -1.1328125 16.58984375 C-1.13168457 15.35097412 -1.13055664 14.11210449 -1.12939453 12.83569336 C-0.98458477 8.54304037 -0.47431388 4.26882489 0 0 Z " fill="#F0F1F0" transform="translate(511,127)"/>
<path d="M0 0 C13.86 0 27.72 0 42 0 C42 13.86 42 27.72 42 42 C28.14 42 14.28 42 0 42 C0 28.14 0 14.28 0 0 Z " fill="#F0F0F0" transform="translate(298,773)"/>
<path d="M0 0 C6.744375 -0.020625 13.48875 -0.04125 20.4375 -0.0625 C22.56888428 -0.071604 24.70026855 -0.08070801 26.89624023 -0.09008789 C28.57535743 -0.093007 30.25447533 -0.09555557 31.93359375 -0.09765625 C32.81374146 -0.10277222 33.69388916 -0.10788818 34.60070801 -0.11315918 C36.73413879 -0.11346896 38.86748314 -0.06244067 41 0 C43.52268836 2.52268836 42.49116535 9.16742971 42.625 12.5625 C42.6765625 13.61630859 42.728125 14.67011719 42.78125 15.75585938 C43.14611248 24.67889333 42.56517058 32.95727072 42 42 C28.14 42 14.28 42 0 42 C0 28.14 0 14.28 0 0 Z " fill="#F0F0EF" transform="translate(681,731)"/>
<path d="M0 0 C13.86 0 27.72 0 42 0 C42 13.86 42 27.72 42 42 C28.14 42 14.28 42 0 42 C0 28.14 0 14.28 0 0 Z " fill="#F0F0F0" transform="translate(171,647)"/>
<path d="M0 0 C13.86 0 27.72 0 42 0 C42 13.86 42 27.72 42 42 C28.14 42 14.28 42 0 42 C0 28.14 0 14.28 0 0 Z " fill="#F1F1F1" transform="translate(86,295)"/>
<path d="M0 0 C13.86 0 27.72 0 42 0 C42 13.86 42 27.72 42 42 C28.14 42 14.28 42 0 42 C0 28.14 0 14.28 0 0 Z " fill="#F0F0F0" transform="translate(256,211)"/>
<path d="M0 0 C13.86 0 27.72 0 42 0 C42 13.86 42 27.72 42 42 C28.14 42 14.28 42 0 42 C0 28.14 0 14.28 0 0 Z " fill="#F0F1F0" transform="translate(171,211)"/>
<path d="M0 0 C13.86 0 27.72 0 42 0 C42 13.86 42 27.72 42 42 C28.14 42 14.28 42 0 42 C0 28.14 0 14.28 0 0 Z " fill="#F2F2F2" transform="translate(724,169)"/>
<path d="M0 0 C13.86 0 27.72 0 42 0 C42 13.86 42 27.72 42 42 C28.14 42 14.28 42 0 42 C0 28.14 0 14.28 0 0 Z " fill="#EFEFEF" transform="translate(468,169)"/>
<path d="M0 0 C13.86 0 27.72 0 42 0 C42 13.86 42 27.72 42 42 C28.14 42 14.28 42 0 42 C0 28.14 0 14.28 0 0 Z " fill="#F0EFEF" transform="translate(298,169)"/>
<path d="M0 0 C13.86 0 27.72 0 42 0 C42 13.86 42 27.72 42 42 C28.14 42 14.28 42 0 42 C0 28.14 0 14.28 0 0 Z " fill="#F0F0F0" transform="translate(213,169)"/>
<path d="M0 0 C13.86 0 27.72 0 42 0 C42 13.86 42 27.72 42 42 C28.14 42 14.28 42 0 42 C0 28.14 0 14.28 0 0 Z " fill="#F1F1F1" transform="translate(596,127)"/>
<path d="M0 0 C6.744375 -0.020625 13.48875 -0.04125 20.4375 -0.0625 C22.56888428 -0.071604 24.70026855 -0.08070801 26.89624023 -0.09008789 C28.57535743 -0.093007 30.25447533 -0.09555557 31.93359375 -0.09765625 C32.81374146 -0.10277222 33.69388916 -0.10788818 34.60070801 -0.11315918 C36.73413879 -0.11346896 38.86748314 -0.06244067 41 0 C42 1 42 1 42.11352539 4.87719727 C42.11327423 6.60694166 42.10771043 8.33669105 42.09765625 10.06640625 C42.09664917 10.8713855 42.09564209 11.67636475 42.09460449 12.5057373 C42.08935614 15.52467261 42.075395 18.54358767 42.0625 21.5625 C42.041875 28.306875 42.02125 35.05125 42 42 C28.14 42 14.28 42 0 42 C0 28.14 0 14.28 0 0 Z " fill="#F0F0EF" transform="translate(383,773)"/>
<path d="M0 0 C1.7297444 0.00025116 3.45949379 0.00581496 5.18920898 0.01586914 C5.99418823 0.01687622 6.79916748 0.0178833 7.62854004 0.0189209 C10.64747534 0.02416925 13.66639041 0.0381304 16.68530273 0.05102539 C23.42967773 0.07165039 30.17405273 0.09227539 37.12280273 0.11352539 C37.12280273 13.97352539 37.12280273 27.83352539 37.12280273 42.11352539 C23.26280273 42.11352539 9.40280273 42.11352539 -4.87719727 42.11352539 C-4.89782227 35.36915039 -4.91844727 28.62477539 -4.93969727 21.67602539 C-4.94880127 19.54464111 -4.95790527 17.41325684 -4.96728516 15.21728516 C-4.97020426 13.53816796 -4.97275283 11.85905006 -4.97485352 10.17993164 C-4.97996948 9.29978394 -4.98508545 8.41963623 -4.99035645 7.51281738 C-4.99066622 5.3793866 -4.93963794 3.24604225 -4.87719727 1.11352539 C-3.87719727 0.11352539 -3.87719727 0.11352539 0 0 Z " fill="#F0F0EF" transform="translate(430.877197265625,730.886474609375)"/>
<path d="M0 0 C14.19 0 28.38 0 43 0 C43 13.53 43 27.06 43 41 C37.0368177 41.02290595 31.07378689 41.04283396 25.1105957 41.05493164 C23.08031702 41.05997278 21.05004198 41.06680557 19.01977539 41.07543945 C16.10822653 41.08751467 13.1967255 41.09323034 10.28515625 41.09765625 C8.91485008 41.10539818 8.91485008 41.10539818 7.51686096 41.11329651 C5.34424573 41.11349168 3.17172704 41.06211805 1 41 C0 40 0 40 -0.11352539 36.21459961 C-0.11327425 34.52717272 -0.10771112 32.8397407 -0.09765625 31.15234375 C-0.09664917 30.36702271 -0.09564209 29.58170166 -0.09460449 28.77258301 C-0.08935638 25.82754057 -0.07539523 22.88251888 -0.0625 19.9375 C-0.041875 13.358125 -0.02125 6.77875 0 0 Z " fill="#F3F3F2" transform="translate(766,816)"/>
<path d="M0 0 C1.67596576 0.03561066 3.35170843 0.08289105 5.02709961 0.1394043 C6.35105995 0.1733857 6.35105995 0.1733857 7.70176697 0.20805359 C9.56889194 0.25805011 11.43588928 0.31302111 13.30273438 0.37255859 C16.17094179 0.46335392 19.03922672 0.53801388 21.90795898 0.61010742 C23.71853261 0.66058938 25.52908089 0.71199038 27.33959961 0.7644043 C28.20311539 0.7873909 29.06663116 0.8103775 29.95631409 0.83406067 C36.00078473 1.03496441 36.00078473 1.03496441 37.11694336 2.15112305 C37.20561972 5.10795535 37.23221863 8.04197519 37.21459961 10.9987793 C37.21359253 11.78410034 37.21258545 12.56942139 37.21154785 13.37854004 C37.20629974 16.32358248 37.19233859 19.26860417 37.17944336 22.21362305 C37.15881836 28.79299805 37.13819336 35.37237305 37.11694336 42.15112305 C23.25694336 42.15112305 9.39694336 42.15112305 -4.88305664 42.15112305 C-6.51325384 38.89072865 -6.04613085 35.29651745 -6.05102539 31.71362305 C-6.05435379 30.87774658 -6.05768219 30.04187012 -6.06111145 29.18066406 C-6.06617771 27.4120336 -6.06851987 25.64339357 -6.06835938 23.87475586 C-6.07054784 21.1620317 -6.08871191 18.44971282 -6.10766602 15.73706055 C-6.11059954 14.02091611 -6.11258461 12.30476973 -6.11352539 10.58862305 C-6.12071091 9.77401611 -6.12789642 8.95940918 -6.13529968 8.12011719 C-6.10314324 0.23752566 -6.10314324 0.23752566 0 0 Z " fill="#F0F0F0" transform="translate(345.883056640625,814.848876953125)"/>
<path d="M0 0 C13.86 0 27.72 0 42 0 C42 13.86 42 27.72 42 42 C28.14 42 14.28 42 0 42 C0 28.14 0 14.28 0 0 Z " fill="#F1F1F1" transform="translate(256,127)"/>
<path d="M0 0 C5.96313166 -0.02464574 11.92623395 -0.042834 17.8894043 -0.05493164 C19.91968298 -0.05997278 21.94995802 -0.06680557 23.98022461 -0.07543945 C26.89177347 -0.08751467 29.8032745 -0.09323034 32.71484375 -0.09765625 C33.6283812 -0.10281754 34.54191864 -0.10797882 35.48313904 -0.11329651 C37.65575427 -0.11349168 39.82827296 -0.06211805 42 0 C43 1 43 1 43.11352539 4.78540039 C43.11327425 6.47282728 43.10771112 8.1602593 43.09765625 9.84765625 C43.09664917 10.63297729 43.09564209 11.41829834 43.09460449 12.22741699 C43.08935638 15.17245943 43.07539523 18.11748112 43.0625 21.0625 C43.041875 27.641875 43.02125 34.22125 43 41 C29.14 41 15.28 41 1 41 C-0.66577625 37.66844749 -0.12007856 33.93463941 -0.09765625 30.2734375 C-0.0962413 29.41062164 -0.09482635 28.54780579 -0.09336853 27.65884399 C-0.08776188 24.8975277 -0.07520827 22.13629188 -0.0625 19.375 C-0.05748586 17.5052095 -0.0529228 15.63541774 -0.04882812 13.765625 C-0.03779029 9.17705223 -0.0205212 4.58853977 0 0 Z " fill="#F2F2F2" transform="translate(128,690)"/>
<path d="M0 0 C13.86 0 27.72 0 42 0 C42 13.53 42 27.06 42 41 C36.91887007 41.7258757 32.24849938 42.14794893 27.16796875 42.1328125 C26.45014725 42.13376923 25.73232574 42.13472595 24.99275208 42.13571167 C23.48938915 42.13638732 21.98602321 42.13457629 20.48266602 42.13037109 C18.17652941 42.12497433 15.87058407 42.13035701 13.56445312 42.13671875 C12.0989579 42.13605863 10.6334628 42.13477884 9.16796875 42.1328125 C8.47841599 42.13483673 7.78886322 42.13686096 7.07841492 42.13894653 C2.22997931 42.11498966 2.22997931 42.11498966 0 41 C0 27.47 0 13.94 0 0 Z " fill="#F1F1F1" transform="translate(383,85)"/>
<path d="M0 0 C1.26521484 -0.00128906 2.53042969 -0.00257813 3.83398438 -0.00390625 C5.75114258 0.00189453 5.75114258 0.00189453 7.70703125 0.0078125 C9.04101656 0.00424092 10.37500103 0.00033639 11.70898438 -0.00390625 C12.96001953 -0.00261719 14.21105469 -0.00132812 15.5 0 C16.63332764 0.00112793 17.76665527 0.00225586 18.93432617 0.00341797 C21.51953125 0.1328125 21.51953125 0.1328125 22.51953125 1.1328125 C22.60823766 4.16237493 22.63479707 7.1696796 22.6171875 10.19921875 C22.61618042 11.004198 22.61517334 11.80917725 22.61413574 12.6385498 C22.60888739 15.65748511 22.59492625 18.67640017 22.58203125 21.6953125 C22.56140625 28.4396875 22.54078125 35.1840625 22.51953125 42.1328125 C8.65953125 42.1328125 -5.20046875 42.1328125 -19.48046875 42.1328125 C-19.48046875 28.6028125 -19.48046875 15.0728125 -19.48046875 1.1328125 C-5.95709296 0.00586452 -5.95709296 0.00586452 0 0 Z " fill="#F2F2F2" transform="translate(402.48046875,856.8671875)"/>
<path d="M0 0 C14.19 0 28.38 0 43 0 C43 13.53 43 27.06 43 41 C29.14 41 15.28 41 1 41 C-0.125 26.375 -0.125 26.375 -0.09765625 20.60546875 C-0.09515869 19.50098389 -0.09266113 18.39649902 -0.09008789 17.25854492 C-0.08098389 15.9151001 -0.07187988 14.57165527 -0.0625 13.1875 C-0.0315625 6.6596875 -0.0315625 6.6596875 0 0 Z " fill="#F3F2F2" transform="translate(510,900)"/>
<path d="M0 0 C1.25619141 -0.00128906 2.51238281 -0.00257813 3.80664062 -0.00390625 C5.7644043 0.00189453 5.7644043 0.00189453 7.76171875 0.0078125 C9.05529297 0.00394531 10.34886719 0.00007812 11.68164062 -0.00390625 C12.94169922 -0.00261719 14.20175781 -0.00132812 15.5 0 C16.64122314 0.00112793 17.78244629 0.00225586 18.95825195 0.00341797 C22.80438915 0.14597708 26.63016119 0.6554303 30.44921875 1.1328125 C30.44921875 14.6628125 30.44921875 28.1928125 30.44921875 42.1328125 C16.58921875 42.1328125 2.72921875 42.1328125 -11.55078125 42.1328125 C-11.55078125 28.6028125 -11.55078125 15.0728125 -11.55078125 1.1328125 C-7.43151211 0.30895867 -4.14798905 0.00411186 0 0 Z " fill="#F1F1F1" transform="translate(479.55078125,856.8671875)"/>
<path d="M0 0 C0 13.86 0 27.72 0 42 C-13.86 42 -27.72 42 -42 42 C-42.82510789 37.04935264 -43.06108892 32.70819978 -42.87890625 27.7578125 C-42.85529526 26.98944061 -42.83168427 26.22106873 -42.80735779 25.42941284 C-42.73127024 22.99439439 -42.6470128 20.55973912 -42.5625 18.125 C-42.5092242 16.46616313 -42.45648425 14.80730897 -42.40429688 13.1484375 C-42.27573028 9.09873183 -42.13983987 5.04933143 -42 1 C-36.17928437 0.85743019 -30.35856491 0.71501782 -24.5378418 0.57275391 C-22.55606989 0.52429505 -20.57429906 0.47579253 -18.5925293 0.42724609 C-15.75049105 0.35763356 -12.90844906 0.28817606 -10.06640625 0.21875 C-9.17474258 0.19687622 -8.28307892 0.17500244 -7.36439514 0.15246582 C-1.11387171 0 -1.11387171 0 0 0 Z " fill="#F0EFEF" transform="translate(468,815)"/>
<path d="M0 0 C0 13.53 0 27.06 0 41 C-13.86 41 -27.72 41 -42 41 C-42 27.47 -42 13.94 -42 0 C-37.029375 -0.165 -32.05875 -0.33 -26.9375 -0.5 C-25.38281006 -0.55220703 -23.82812012 -0.60441406 -22.22631836 -0.65820312 C-20.98503174 -0.69880859 -19.74374512 -0.73941406 -18.46484375 -0.78125 C-17.202771 -0.82314453 -15.94069824 -0.86503906 -14.64038086 -0.90820312 C-4.64136461 -1.16034115 -4.64136461 -1.16034115 0 0 Z " fill="#F2F2F2" transform="translate(298,816)"/>
<path d="M0 0 C13.86 0 27.72 0 42 0 C42 13.53 42 27.06 42 41 C28.14 41 14.28 41 0 41 C0 27.47 0 13.94 0 0 Z " fill="#F0EFF0" transform="translate(511,816)"/>
<path d="M0 0 C13.86 0 27.72 0 42 0 C42 13.53 42 27.06 42 41 C28.14 41 14.28 41 0 41 C0 27.47 0 13.94 0 0 Z " fill="#EFEFEF" transform="translate(383,690)"/>
<path d="M0 0 C6.744375 -0.020625 13.48875 -0.04125 20.4375 -0.0625 C22.56888428 -0.071604 24.70026855 -0.08070801 26.89624023 -0.09008789 C28.57535743 -0.093007 30.25447533 -0.09555557 31.93359375 -0.09765625 C32.81374146 -0.10277222 33.69388916 -0.10788818 34.60070801 -0.11315918 C36.73413879 -0.11346896 38.86748314 -0.06244067 41 0 C42 1 42 1 42.11352539 4.78540039 C42.11327425 6.47282728 42.10771112 8.1602593 42.09765625 9.84765625 C42.09664917 10.63297729 42.09564209 11.41829834 42.09460449 12.22741699 C42.08935638 15.17245943 42.07539523 18.11748112 42.0625 21.0625 C42.041875 27.641875 42.02125 34.22125 42 41 C28.14 41 14.28 41 0 41 C0 27.47 0 13.94 0 0 Z " fill="#EFF0EF" transform="translate(341,732)"/>
<path d="M0 0 C0.33 0.66 0.66 1.32 1 2 C15.85 2.495 15.85 2.495 31 3 C31 16.53 31 30.06 31 44 C25.0368177 44.02290595 19.07378689 44.04283396 13.1105957 44.05493164 C11.08031702 44.05997278 9.05004198 44.06680557 7.01977539 44.07543945 C4.10822653 44.08751467 1.1967255 44.09323034 -1.71484375 44.09765625 C-3.08514992 44.10539818 -3.08514992 44.10539818 -4.48313904 44.11329651 C-6.65575427 44.11349168 -8.82827296 44.06211805 -11 44 C-12 43 -12 43 -12.11352539 39.94897461 C-12.11336634 38.60008729 -12.10767612 37.25119386 -12.09765625 35.90234375 C-12.0962413 35.19348526 -12.09482635 34.48462677 -12.09336853 33.75428772 C-12.08775443 31.48198288 -12.07519963 29.20977525 -12.0625 26.9375 C-12.05748681 25.40039204 -12.05292359 23.86328255 -12.04882812 22.32617188 C-12.03778042 18.55074358 -12.02050641 14.77538829 -12 11 C-11.38415039 10.88213135 -10.76830078 10.7642627 -10.13378906 10.64282227 C-6.92321066 9.67560797 -5.74643587 7.56614056 -3.75 4.9375 C-3.04359375 4.01839844 -2.3371875 3.09929688 -1.609375 2.15234375 C-0.81273437 1.08693359 -0.81273437 1.08693359 0 0 Z " fill="#F0F0EF" transform="translate(522,729)"/>
<path d="M0 0 C14.19 0 28.38 0 43 0 C43 6.27 43 12.54 43 19 C76.33 19 109.66 19 144 19 C144 19.33 144 19.66 144 20 C-36.18 20.33 -216.36 20.66 -402 21 C-397.77606829 18.88803414 -395.91322316 18.75099797 -391.29209518 18.75390434 C-390.61550708 18.75159665 -389.93891898 18.74928897 -389.2418282 18.74691135 C-386.96424157 18.74159819 -384.6869351 18.75060622 -382.40936279 18.75949097 C-380.76423935 18.75861917 -379.11911618 18.75686866 -377.47399449 18.75431263 C-372.94517013 18.74983005 -368.41643996 18.75785529 -363.8876276 18.76786876 C-359.00694337 18.77648785 -354.12626465 18.77358419 -349.24557495 18.77206421 C-340.78673794 18.77101438 -332.32793174 18.77730121 -323.86910248 18.78853989 C-311.63898693 18.80477867 -299.40888631 18.81000123 -287.17876115 18.81251587 C-267.33726461 18.81689552 -247.4957845 18.83021195 -227.65429688 18.84912109 C-208.377605 18.8674729 -189.10091759 18.88163283 -169.82421875 18.89013672 C-168.6364454 18.89066217 -167.44867206 18.89118761 -166.22490558 18.89172898 C-160.26632779 18.89433902 -154.30774996 18.89686644 -148.34917212 18.89935279 C-98.89943662 18.9200937 -49.44971936 18.95547503 0 19 C0 12.73 0 6.46 0 0 Z " fill="#F3EBD4" transform="translate(638,253)"/>
<path d="M0 0 C8.91 0 17.82 0 27 0 C27 13.86 27 27.72 27 42 C18.09 42 9.18 42 0 42 C0 28.14 0 14.28 0 0 Z " fill="#F0F1F0" transform="translate(171,563)"/>
<path d="M0 0 C8.91 0 17.82 0 27 0 C27 13.86 27 27.72 27 42 C18.09 42 9.18 42 0 42 C0 28.14 0 14.28 0 0 Z " fill="#FEFEFE" transform="translate(171,337)"/>
<path d="M0 0 C8.25 0 16.5 0 25 0 C25 13.86 25 27.72 25 42 C16.75 42 8.5 42 0 42 C0 28.14 0 14.28 0 0 Z " fill="#FEFEFE" transform="translate(827,563)"/>
<path d="M0 0 C13.86 0 27.72 0 42 0 C42.495 9.405 42.495 9.405 43 19 C39.535 19.0928125 39.535 19.0928125 36 19.1875 C22.65928505 19.87401225 11.56946467 23.68343709 1 32 C0.67 32 0.34 32 0 32 C0 21.44 0 10.88 0 0 Z " fill="#F0F0F0" transform="translate(213,253)"/>
<path d="M0 0 C3.8671875 0.061875 3.8671875 0.061875 7.8125 0.125 C7.8125 10.025 7.8125 19.925 7.8125 30.125 C-5.0575 30.455 -17.9275 30.785 -31.1875 31.125 C-29.43081491 24.9766022 -28.05500106 22.18940972 -24 17.75 C-23.00497528 16.62244659 -22.0114886 15.49353409 -21.01953125 14.36328125 C-20.53564941 13.81623535 -20.05176758 13.26918945 -19.55322266 12.70556641 C-17.09582749 9.86159495 -14.86376729 6.84877017 -12.625 3.83203125 C-8.96593325 -0.51311051 -5.21327171 -0.11747925 0 0 Z " fill="#FDFDFA" transform="translate(588.1875,658.875)"/>
<path d="M0 0 C0.99 0.33 1.98 0.66 3 1 C4.04777631 3.47334238 4.90161461 5.82027892 5.6875 8.375 C5.91244141 9.06078125 6.13738281 9.7465625 6.36914062 10.453125 C7.31470473 13.40765356 8 15.8803551 8 19 C8.66 19 9.32 19 10 19 C11.50514646 23.12314058 13.00324372 27.24880702 14.5 31.375 C14.92925781 32.550625 15.35851562 33.72625 15.80078125 34.9375 C16.20683594 36.05898438 16.61289062 37.18046875 17.03125 38.3359375 C17.59682617 39.89127197 17.59682617 39.89127197 18.17382812 41.47802734 C19 44 19 44 19 46 C7.12 46 -4.76 46 -17 46 C-17 45.01 -17 44.02 -17 43 C-16.34 43 -15.68 43 -15 43 C-14.87923096 42.13665039 -14.75846191 41.27330078 -14.6340332 40.38378906 C-14.00261228 37.01394156 -13.05727857 34.06652881 -11.85546875 30.859375 C-11.42556641 29.70566406 -10.99566406 28.55195313 -10.55273438 27.36328125 C-10.10220703 26.17089844 -9.65167969 24.97851562 -9.1875 23.75 C-8.74857422 22.57308594 -8.30964844 21.39617187 -7.85742188 20.18359375 C-5.32566529 13.41970321 -2.71940048 6.69066457 0 0 Z " fill="#F0BF2A" transform="translate(682,437)"/>
<path d="M0 0 C1.77206192 0.00015919 3.54412846 0.00585754 5.31616211 0.01586914 C6.24698105 0.01728409 7.17779999 0.01869904 8.13682556 0.02015686 C11.12241777 0.02577367 14.10793615 0.03832899 17.09350586 0.05102539 C19.11238499 0.05603823 21.13126529 0.06060151 23.15014648 0.06469727 C28.11048456 0.07489952 33.07066216 0.09447157 38.03100586 0.11352539 C38.03100586 6.38352539 38.03100586 12.65352539 38.03100586 19.11352539 C23.84100586 19.11352539 9.65100586 19.11352539 -4.96899414 19.11352539 C-4.96899414 0.14212845 -4.96899414 0.14212845 0 0 Z " fill="#FEFEFE" transform="translate(429.968994140625,252.886474609375)"/>
<path d="M0 0 C1.77206192 0.00015919 3.54412846 0.00585754 5.31616211 0.01586914 C6.24698105 0.01728409 7.17779999 0.01869904 8.13682556 0.02015686 C11.12241777 0.02577367 14.10793615 0.03832899 17.09350586 0.05102539 C19.11238499 0.05603823 21.13126529 0.06060151 23.15014648 0.06469727 C28.11048456 0.07489952 33.07066216 0.09447157 38.03100586 0.11352539 C38.03100586 6.38352539 38.03100586 12.65352539 38.03100586 19.11352539 C23.84100586 19.11352539 9.65100586 19.11352539 -4.96899414 19.11352539 C-4.96899414 0.14212845 -4.96899414 0.14212845 0 0 Z " fill="#FEFEFE" transform="translate(344.968994140625,252.886474609375)"/>
<path d="M0 0 C13.86 0 27.72 0 42 0 C42 6.27 42 12.54 42 19 C27.81 19 13.62 19 -1 19 C-0.67 12.73 -0.34 6.46 0 0 Z " fill="#F1F0F0" transform="translate(724,253)"/>
<path d="M0 0 C13.86 0 27.72 0 42 0 C42 6.27 42 12.54 42 19 C28.14 19 14.28 19 0 19 C0 12.73 0 6.46 0 0 Z " fill="#FEFEFE" transform="translate(596,253)"/>
<path d="M0 0 C3.61216604 3.61216604 6.98506022 7.22116553 10.25 11.125 C10.72888672 11.69412109 11.20777344 12.26324219 11.70117188 12.84960938 C15.39503552 17.24986925 19.03541708 21.69252924 22.65234375 26.15625 C24.41150618 28.28714892 26.19070201 30.38473881 28.00390625 32.46875 C28.76574219 33.34950195 28.76574219 33.34950195 29.54296875 34.24804688 C30.53808307 35.3953702 31.53918947 36.5375301 32.546875 37.67382812 C36 41.66619471 36 41.66619471 36 45 C35.34 44.34 34.68 43.68 34 43 C31.42514635 42.75479372 28.94688474 42.62642023 26.3671875 42.5859375 C25.70082275 42.56829346 25.03445801 42.55064941 24.34790039 42.5324707 C21.85717966 42.46937509 19.36605335 42.42320804 16.875 42.375 C8.521875 42.189375 8.521875 42.189375 0 42 C0 28.14 0 14.28 0 0 Z " fill="#F0EFEB" transform="translate(468,689)"/>
<path d="M0 0 C0.66 0 1.32 0 2 0 C0.53033642 3.39859703 -1.38037514 5.64963709 -4 8.25 C-4.70125 8.95640625 -5.4025 9.6628125 -6.125 10.390625 C-8 12 -8 12 -10 12 C-8.40907948 7.86360664 -5.39525082 4.76786752 -2 2 C-1.34 2 -0.68 2 0 2 C0 1.34 0 0.68 0 0 Z " fill="#35290A" transform="translate(287,407)"/>
<path d="M0 0 C2.97 0.495 2.97 0.495 6 1 C5.45276317 4.37462715 4.9451 6.08235 3 9 C2.01 6.03 1.02 3.06 0 0 Z " fill="#E7BA26" transform="translate(553,476)"/>
<path d="M0 0 C0.33 0.66 0.66 1.32 1 2 C0.67 2.66 0.34 3.32 0 4 C-0.66 4 -1.32 4 -2 4 C-2.3403125 4.8971875 -2.3403125 4.8971875 -2.6875 5.8125 C-4.37304841 8.62174735 -6.05002192 9.63293699 -9 11 C-9.99 10.67 -10.98 10.34 -12 10 C-10.87926138 9.16094435 -9.75325453 8.32892169 -8.625 7.5 C-7.99851562 7.0359375 -7.37203125 6.571875 -6.7265625 6.09375 C-5 5 -5 5 -3 5 C-3 4.34 -3 3.68 -3 3 C-2.34 3 -1.68 3 -1 3 C-0.67 2.01 -0.34 1.02 0 0 Z " fill="#B58C1F" transform="translate(393,519)"/>
<path d="M0 0 C1.80411967 2.75924185 2.0127245 3.88972103 1.625 7.25 C1.41875 8.1575 1.2125 9.065 1 10 C0.34 10 -0.32 10 -1 10 C-1.66 7.03 -2.32 4.06 -3 1 C-2.01 1.495 -2.01 1.495 -1 2 C-0.67 1.34 -0.34 0.68 0 0 Z " fill="#D7AA22" transform="translate(465,475)"/>
<path d="M0 0 C0.33 0.66 0.66 1.32 1 2 C-0.73397418 5.65047197 -2.19333016 7.55609075 -6 9 C-4.47291037 5.56404834 -2.40072955 2.88087546 0 0 Z " fill="#F4E8C2" transform="translate(522,729)"/>
<path d="M0 0 C0.66 0.33 1.32 0.66 2 1 C0.90931332 4.77545388 0.0916909 7.47043472 -3 10 C-2.39009109 6.44219804 -1.4216319 3.3171411 0 0 Z " fill="#E4B528" transform="translate(507,464)"/>
<path d="M0 0 C1.32 0.66 2.64 1.32 4 2 C1.0534615 3.80066242 -1.88801935 5.50163895 -5 7 C-4.34 5.68 -3.68 4.36 -3 3 C-2.34 3 -1.68 3 -1 3 C-0.67 2.01 -0.34 1.02 0 0 Z " fill="#3B2F0D" transform="translate(374,490)"/>
<path d="M0 0 C0.66 0 1.32 0 2 0 C0.71480435 2.86697492 -0.57129254 4.97607712 -3 7 C-3.66 7 -4.32 7 -5 7 C-4.34 5.68 -3.68 4.36 -3 3 C-2.34 3 -1.68 3 -1 3 C-0.67 2.01 -0.34 1.02 0 0 Z " fill="#F8D45E" transform="translate(214,284)"/>
<path d="M0 0 C1 2 1 2 0.44140625 4.1640625 C0.15136719 4.97617187 -0.13867188 5.78828125 -0.4375 6.625 C-0.72496094 7.44226563 -1.01242187 8.25953125 -1.30859375 9.1015625 C-1.53675781 9.72804688 -1.76492188 10.35453125 -2 11 C-2.33 11 -2.66 11 -3 11 C-3.36923077 4.6 -3.36923077 4.6 -1.5 1.5625 C-1.005 1.046875 -0.51 0.53125 0 0 Z " fill="#4B340B" transform="translate(669,469)"/>
<path d="M0 0 C0.33 0.66 0.66 1.32 1 2 C0.34 2 -0.32 2 -1 2 C-1.2475 2.61875 -1.495 3.2375 -1.75 3.875 C-3.20628639 6.35068687 -4.37812506 6.95125002 -7 8 C-5.625 5.5 -5.625 5.5 -4 3 C-3.34 3 -2.68 3 -2 3 C-2 2.34 -2 1.68 -2 1 C-1.34 0.67 -0.68 0.34 0 0 Z " fill="#C1961D" transform="translate(312,433)"/>
</svg>
